<?xml version="1.0" encoding="UTF-8"?>
<svg width="148px" height="112px" viewBox="0 0 148 112" version="1.1" xmlns="http://www.w3.org/2000/svg" xmlns:xlink="http://www.w3.org/1999/xlink">
    <title>footer-logo</title>
    <g id="Symbols" stroke="none" stroke-width="1" fill="none" fill-rule="evenodd">
        <g id="Footer" transform="translate(-80.000000, -98.000000)" fill="#0D436D" fill-rule="nonzero">
            <g id="Group-5">
                <path d="M227.832364,109.585614 C227.787488,109.531169 227.737586,109.4811 227.683321,109.436075 C227.592936,109.341767 227.48544,109.265635 227.366604,109.211767 L209.183326,98.1832527 C208.769355,97.9389158 208.255907,97.9389158 207.841936,98.1832527 L189.73318,109.08092 L189.73318,109.08092 L189.528245,109.230459 L154.13047,146.615252 L118.732695,109.323921 L118.322826,109.211767 L118.322826,109.211767 L100.176809,98.2019451 C99.7560169,97.9581926 99.2375803,97.9581926 98.8167887,98.2019451 L80.6335105,109.211767 C80.5096139,109.305009 80.4025013,109.4188 80.3167936,109.54823 C80.3167936,109.54823 80.2050111,109.54823 80.1677503,109.697769 C80.0663131,109.874621 80.0088015,110.073375 80.0000379,110.277233 L80.0000379,197.757648 C79.9965211,198.218147 80.237948,198.645612 80.6335105,198.879192 L98.8167887,209.832936 L98.8167887,209.832936 C99.2231518,210.055688 99.7145542,210.055688 100.120917,209.832936 L100.120917,209.832936 L118.322826,198.935269 C118.71585,198.690246 118.95526,198.259288 118.95626,197.795033 L118.95626,166.130113 L143.939637,193.196703 C144.019627,193.291793 144.113912,193.373779 144.219093,193.439705 L153.329363,198.935269 C153.73963,199.168554 154.241855,199.168554 154.652122,198.935269 C154.652122,198.935269 154.652122,198.935269 154.652122,198.935269 L163.836913,193.32755 L164.116369,193.103241 L189.062485,166.111421 L189.062485,197.757648 C189.05893,198.218147 189.300357,198.645612 189.695919,198.879192 L207.841936,209.795551 L207.841936,209.795551 C208.041803,209.905575 208.266028,209.963425 208.494001,209.963783 C208.71576,209.961106 208.933397,209.903304 209.127435,209.795551 L209.127435,209.795551 L227.366604,198.935269 C227.756683,198.69632 227.996185,198.272263 228.000038,197.813725 L228.000038,110.239848 C228.000038,110.011117 227.942023,109.786146 227.832364,109.585614 L227.832364,109.585614 Z M116.96176,196.654206 L101.000038,206 L101.000038,148.056075 L101.000038,146 L117.000038,162.82243 L116.96176,196.654206 Z M119.343995,139.235429 L101.718497,121.507924 L99.5989755,119.641871 L89.8566116,113.857106 L84.0000379,110.330266 L99.6175678,101 L115.142136,110.330266 L117.447581,111.991053 L154.000038,150.48773 L154.000038,174 L119.343995,139.235429 Z M225.000038,196.639315 L209.512838,206 L209.512838,142.590719 C209.509634,142.396315 209.465371,142.204838 209.383006,142.029078 L209.383006,141.841864 L209.383006,141.841864 C209.248072,141.649487 209.061439,141.50008 208.845127,141.411273 C208.697956,141.384229 208.547157,141.384229 208.399986,141.411273 L208.307248,141.411273 L207.973392,141.411273 L207.825012,141.411273 C207.685669,141.481653 207.560015,141.576777 207.454061,141.692093 L207.454061,141.692093 L207.120205,142.066521 L189.25892,161.330811 C189.25892,161.330811 189.25892,161.443139 189.147635,161.480582 L162.253695,190.816969 L154.000038,195.796853 L154.000038,177.281418 L196.65939,134.222266 L209.086245,121.753834 L225.000038,112 L225.000038,196.639315 Z" id="footer-logo"></path>
            </g>
        </g>
    </g>
</svg>