<?xml version="1.0" encoding="UTF-8"?>
<svg width="47px" height="61px" viewBox="0 0 47 61" version="1.1" xmlns="http://www.w3.org/2000/svg" xmlns:xlink="http://www.w3.org/1999/xlink">
    <title>ic-benefits</title>
    <g id="Page-1" stroke="none" stroke-width="1" fill="none" fill-rule="evenodd">
        <g id="Acquisitions" transform="translate(-533.000000, -898.000000)" fill="#109FDA" fill-rule="nonzero">
            <g id="Group" transform="translate(533.000000, 898.000000)">
                <path d="M2.0159,9.9891 L2.0159,28.0851 C2.0159,37.9091 6.4199,47.2371 13.7979,53.0341 C16.6809,55.3001 19.7809,56.9551 23.0159,57.9551 C26.2509,56.9551 29.3509,55.3001 32.2339,53.0341 C39.6119,47.2371 44.0159,37.9091 44.0159,28.0851 L44.0159,9.9891 C31.7739,9.7171 25.1509,4.4921 23.0159,2.4441 C20.8809,4.4921 14.2579,9.7171 2.0159,9.9891 M23.0159,60.0001 C22.9199,60.0001 22.8249,59.9871 22.7309,59.9591 C19.1499,58.8961 15.7289,57.0951 12.5619,54.6071 C4.7059,48.4331 0.0159,38.5181 0.0159,28.0851 L0.0159,9.0001 C0.0159,8.4481 0.4639,8.0001 1.0159,8.0001 C15.7109,8.0001 22.1839,0.4361 22.2479,0.3601 C22.6269,-0.0949 23.4029,-0.0959 23.7829,0.3591 C23.8759,0.4681 30.4199,8.0001 45.0159,8.0001 C45.5679,8.0001 46.0159,8.4481 46.0159,9.0001 L46.0159,28.0851 C46.0159,38.5181 41.3259,48.4331 33.4699,54.6071 C30.3029,57.0951 26.8819,58.8961 23.3009,59.9591 C23.2069,59.9871 23.1119,60.0001 23.0159,60.0001" id="Shape"></path>
                <path d="M23.0159,22.0003 C20.8099,22.0003 19.0159,23.7943 19.0159,26.0003 C19.0159,28.2063 20.8099,30.0003 23.0159,30.0003 C25.2219,30.0003 27.0159,28.2063 27.0159,26.0003 C27.0159,23.7943 25.2219,22.0003 23.0159,22.0003 M23.0159,32.0003 C19.7069,32.0003 17.0159,29.3093 17.0159,26.0003 C17.0159,22.6913 19.7069,20.0003 23.0159,20.0003 C26.3249,20.0003 29.0159,22.6913 29.0159,26.0003 C29.0159,29.3093 26.3249,32.0003 23.0159,32.0003" id="Shape"></path>
                <path d="M31.0159,30.0003 C29.5559,30.0003 28.1399,29.4523 27.0289,28.4583 L28.3629,26.9683 C29.1059,27.6333 30.0489,28.0003 31.0159,28.0003 C33.2219,28.0003 35.0159,26.2063 35.0159,24.0003 C35.0159,21.7943 33.2219,20.0003 31.0159,20.0003 C29.3549,20.0003 27.8519,21.0583 27.2749,22.6313 L25.3969,21.9433 C26.2619,19.5843 28.5199,18.0003 31.0159,18.0003 C34.3249,18.0003 37.0159,20.6913 37.0159,24.0003 C37.0159,27.3093 34.3249,30.0003 31.0159,30.0003" id="Path"></path>
                <path d="M15.0159,30.0003 C11.7069,30.0003 9.0159,27.3093 9.0159,24.0003 C9.0159,20.6913 11.7069,18.0003 15.0159,18.0003 C17.5119,18.0003 19.7699,19.5843 20.6349,21.9433 L18.7569,22.6313 C18.1799,21.0583 16.6769,20.0003 15.0159,20.0003 C12.8099,20.0003 11.0159,21.7943 11.0159,24.0003 C11.0159,26.2063 12.8099,28.0003 15.0159,28.0003 C15.9829,28.0003 16.9259,27.6333 17.6689,26.9683 L19.0029,28.4583 C17.8919,29.4523 16.4759,30.0003 15.0159,30.0003" id="Path"></path>
                <path d="M29.0159,42.0003 L17.0159,42.0003 C16.4639,42.0003 16.0159,41.5523 16.0159,41.0003 L16.0159,35.0003 C16.0159,32.5443 17.2729,30.3123 19.3779,29.0273 L20.4199,30.7343 C18.9139,31.6523 18.0159,33.2483 18.0159,35.0003 L18.0159,40.0003 L28.0159,40.0003 L28.0159,35.0003 C28.0159,33.2483 27.1179,31.6523 25.6119,30.7343 L26.6539,29.0273 C28.7589,30.3123 30.0159,32.5443 30.0159,35.0003 L30.0159,41.0003 C30.0159,41.5523 29.5679,42.0003 29.0159,42.0003" id="Path"></path>
                <path d="M17.0159,40.0003 L9.0159,40.0003 C8.4639,40.0003 8.0159,39.5523 8.0159,39.0003 L8.0159,33.0003 C8.0159,30.5443 9.2729,28.3123 11.3779,27.0273 L12.4199,28.7343 C10.9139,29.6523 10.0159,31.2483 10.0159,33.0003 L10.0159,38.0003 L17.0159,38.0003 L17.0159,40.0003 Z" id="Path"></path>
                <path d="M37.0159,40.0003 L29.0159,40.0003 L29.0159,38.0003 L36.0159,38.0003 L36.0159,33.0003 C36.0159,31.2483 35.1179,29.6523 33.6119,28.7343 L34.6539,27.0273 C36.7589,28.3123 38.0159,30.5443 38.0159,33.0003 L38.0159,39.0003 C38.0159,39.5523 37.5679,40.0003 37.0159,40.0003" id="Path"></path>
            </g>
        </g>
    </g>
</svg>