<?xml version="1.0" encoding="UTF-8"?>
<svg width="60px" height="60px" viewBox="0 0 60 60" version="1.1" xmlns="http://www.w3.org/2000/svg" xmlns:xlink="http://www.w3.org/1999/xlink">
    <title>ic-distribution</title>
    <g id="Page-1" stroke="none" stroke-width="1" fill="none" fill-rule="evenodd">
        <g id="Desktop-HD" transform="translate(-581.000000, -1855.000000)" stroke="#109FDA" stroke-width="2">
            <g id="Group-15" transform="translate(125.000000, 1654.000000)">
                <g id="ic-distribution" transform="translate(457.000000, 202.000000)">
                    <path d="M15.8181818,52.7272727 C15.8181818,55.6404545 13.4586364,58 10.5454545,58 C7.63227273,58 5.27272727,55.6404545 5.27272727,52.7272727 C5.27272727,49.8140909 7.63227273,47.4545455 10.5454545,47.4545455 C13.4586364,47.4545455 15.8181818,49.8140909 15.8181818,52.7272727 L15.8181818,52.7272727 Z" id="Path"></path>
                    <path d="M52.7272727,52.7272727 C52.7272727,55.6404545 50.3677273,58 47.4545455,58 C44.5413636,58 42.1818182,55.6404545 42.1818182,52.7272727 C42.1818182,49.8140909 44.5413636,47.4545455 47.4545455,47.4545455 C50.3677273,47.4545455 52.7272727,49.8140909 52.7272727,52.7272727 L52.7272727,52.7272727 Z" id="Path"></path>
                    <path d="M0,39.5454545 L0,52.7272727 L5.27272727,52.7272727 C5.27272727,49.8140909 7.63227273,47.4545455 10.5454545,47.4545455 C13.4586364,47.4545455 15.8181818,49.8140909 15.8181818,52.7272727 L42.1818182,52.7272727 C42.1818182,49.8140909 44.544,47.4545455 47.4545455,47.4545455 C50.3650909,47.4545455 52.7272727,49.8140909 52.7272727,52.7272727 L58,52.7272727 L58,39.5454545 L0,39.5454545 L0,39.5454545 Z" id="Path"></path>
                    <line x1="5.27272727" y1="39.5454545" x2="5.27272727" y2="10.5454545" id="Path"></line>
                    <line x1="0" y1="5.27272727" x2="5.27272727" y2="10.5454545" id="Path"></line>
                    <polygon id="Path" points="36.9090909 39.5454545 58 39.5454545 58 18.4545455 36.9090909 18.4545455"></polygon>
                    <line x1="47.4545455" y1="18.4545455" x2="47.4545455" y2="26.3636364" id="Path"></line>
                    <polygon id="Path" points="15.8181818 39.5454545 36.9090909 39.5454545 36.9090909 18.4545455 15.8181818 18.4545455"></polygon>
                    <line x1="26.3636364" y1="18.4545455" x2="26.3636364" y2="26.3636364" id="Path"></line>
                    <polygon id="Path" points="26.3636364 18.4545455 47.4545455 18.4545455 47.4545455 0 26.3636364 0"></polygon>
                    <line x1="36.9090909" y1="0" x2="36.9090909" y2="7.90909091" id="Path"></line>
                </g>
            </g>
        </g>
    </g>
</svg>