<?xml version="1.0" encoding="UTF-8"?>
<svg width="95px" height="90px" viewBox="0 0 95 90" version="1.1" xmlns="http://www.w3.org/2000/svg" xmlns:xlink="http://www.w3.org/1999/xlink">
    <title>ic-design-engineering</title>
    <g id="Page-1" stroke="none" stroke-width="1" fill="none" fill-rule="evenodd">
        <g id="Desktop-HD" transform="translate(-141.000000, -1178.000000)" fill-rule="nonzero">
            <g id="Group-21" transform="translate(0.000000, 40.000000)">
                <g id="Group-8" transform="translate(80.000000, 1090.000000)">
                    <g id="ic-design-engineering" transform="translate(61.000000, 48.000000)">
                        <path d="M89.704918,3.14754098 C90.5238907,3.14754098 91.1996794,3.77642744 91.2722394,4.5781329 L91.2786885,4.72131148 L91.2786885,20.4590164 C91.2786885,21.2794754 90.6483983,21.9539429 89.8478626,22.0263515 L89.704918,22.0327869 L35.2280656,22.0327869 C35.5979016,22.0327869 35.9567213,22.1634098 36.2384262,22.4010492 L82.6872408,61.376541 L89.7053902,61.3770492 C92.3084066,61.3770492 94.4267016,63.4953443 94.4267016,66.0983607 L94.4267016,81.8360656 C94.4267016,84.439082 92.3084066,86.557377 89.7053902,86.557377 L84.1422408,86.556541 L83.0281967,87.8856393 C82.1547541,88.9274754 80.9272131,89.5664262 79.5721967,89.684459 C79.4211148,89.698623 79.2700328,89.704918 79.1189508,89.704918 C77.9260328,89.704918 76.7803279,89.2894426 75.8549508,88.512 L73.592,86.556541 L3.70622951,86.557377 C1.66347541,86.557377 4.26325641e-14,84.8939016 4.26325641e-14,82.8511475 L4.26325641e-14,65.0817049 C4.26325641e-14,63.0405246 1.66347541,61.3770492 3.70622951,61.3770492 L44.451,61.376541 L2.11908197,24.7979016 C1.62177049,24.3666885 1.44236066,23.6742295 1.67213115,23.0573115 C1.90190164,22.4419672 2.4904918,22.0327869 3.1467541,22.0327869 L3.79593443,22.0327869 C3.47116542,22.0327869 3.20102317,21.7921691 3.15459043,21.4800163 L3.14754098,21.3843934 L3.14754098,3.70465574 C3.14754098,3.42845902 3.35022689,3.19815344 3.61563069,3.1548543 L3.70622951,3.14754098 L89.704918,3.14754098 Z M82.220223,69.2295344 C80.9360262,68.1515016 79.3056,67.6274361 77.6405508,67.7863869 C75.9707803,67.9311738 74.4583869,68.718059 73.3819279,70.0038295 C72.3054689,71.2864525 71.7924197,72.9121574 71.9372066,74.5819279 C72.0835672,76.2516984 72.8720262,77.762518 74.156223,78.8421246 C75.328682,79.8257311 76.7576656,80.3057311 78.1819279,80.3057311 C79.9728787,80.3057311 81.7543869,79.5440262 82.9929443,78.0678295 C84.070977,76.7836328 84.5840262,75.1579279 84.4360918,73.4881574 C84.2913049,71.8183869 83.5044197,70.3059934 82.220223,69.2295344 Z M12.6117246,67.6935344 C9.15257705,67.6935344 6.33867541,70.5074361 6.33867541,73.9665836 C6.33867541,77.4273049 9.15257705,80.2412066 12.6117246,80.2412066 C16.0708721,80.2412066 18.8847738,77.4273049 18.8847738,73.9665836 C18.8847738,70.5074361 16.0708721,67.6935344 12.6117246,67.6935344 Z M12.6117246,6.31648525 C9.15257705,6.31648525 6.33867541,9.13038689 6.33867541,12.5895344 C6.33867541,16.0502557 9.15257705,18.8641574 12.6117246,18.8641574 C16.0708721,18.8641574 18.8847738,16.0502557 18.8847738,12.5895344 C18.8847738,9.13038689 16.0708721,6.31648525 12.6117246,6.31648525 Z" id="Shape" fill-opacity="0.25" fill="#FCE013"></path>
                        <path d="M75.5409836,9.44262295 C74.6722623,9.44262295 73.9672131,8.73914754 73.9672131,7.86885246 L73.9672131,1.57377049 C73.9672131,0.70347541 74.6722623,-1.14575016e-13 75.5409836,-1.14575016e-13 C76.4097049,-1.14575016e-13 77.1147541,0.70347541 77.1147541,1.57377049 L77.1147541,7.86885246 C77.1147541,8.73914754 76.4097049,9.44262295 75.5409836,9.44262295" id="Path" fill="#CC3538"></path>
                        <path d="M69.2459016,12.5901639 C68.3771803,12.5901639 67.6721311,11.8866885 67.6721311,11.0163934 L67.6721311,1.57377049 C67.6721311,0.70347541 68.3771803,-7.81597009e-14 69.2459016,-7.81597009e-14 C70.114623,-7.81597009e-14 70.8196721,0.70347541 70.8196721,1.57377049 L70.8196721,11.0163934 C70.8196721,11.8866885 70.114623,12.5901639 69.2459016,12.5901639" id="Path" fill="#CC3538"></path>
                        <path d="M81.8360656,12.5901639 C80.9673443,12.5901639 80.2622951,11.8866885 80.2622951,11.0163934 L80.2622951,1.57377049 C80.2622951,0.70347541 80.9673443,-7.81597009e-14 81.8360656,-7.81597009e-14 C82.7047869,-7.81597009e-14 83.4098361,0.70347541 83.4098361,1.57377049 L83.4098361,11.0163934 C83.4098361,11.8866885 82.7047869,12.5901639 81.8360656,12.5901639" id="Path" fill="#CC3538"></path>
                        <path d="M62.9508197,9.44262295 C62.0820984,9.44262295 61.3770492,8.73914754 61.3770492,7.86885246 L61.3770492,1.57377049 C61.3770492,0.70347541 62.0820984,-1.14575016e-13 62.9508197,-1.14575016e-13 C63.819541,-1.14575016e-13 64.5245902,0.70347541 64.5245902,1.57377049 L64.5245902,7.86885246 C64.5245902,8.73914754 63.819541,9.44262295 62.9508197,9.44262295" id="Path" fill="#CC3538"></path>
                        <path d="M56.6557377,12.5901639 C55.7870164,12.5901639 55.0819672,11.8866885 55.0819672,11.0163934 L55.0819672,1.57377049 C55.0819672,0.70347541 55.7870164,-7.81597009e-14 56.6557377,-7.81597009e-14 C57.524459,-7.81597009e-14 58.2295082,0.70347541 58.2295082,1.57377049 L58.2295082,11.0163934 C58.2295082,11.8866885 57.524459,12.5901639 56.6557377,12.5901639" id="Path" fill="#CC3538"></path>
                        <path d="M50.3606557,9.44262295 C49.4919344,9.44262295 48.7868852,8.73914754 48.7868852,7.86885246 L48.7868852,1.57377049 C48.7868852,0.70347541 49.4919344,-1.14575016e-13 50.3606557,-1.14575016e-13 C51.229377,-1.14575016e-13 51.9344262,0.70347541 51.9344262,1.57377049 L51.9344262,7.86885246 C51.9344262,8.73914754 51.229377,9.44262295 50.3606557,9.44262295" id="Path" fill="#CC3538"></path>
                        <path d="M44.0655738,12.5901639 C43.1968525,12.5901639 42.4918033,11.8866885 42.4918033,11.0163934 L42.4918033,1.57377049 C42.4918033,0.70347541 43.1968525,-7.81597009e-14 44.0655738,-7.81597009e-14 C44.9342951,-7.81597009e-14 45.6393443,0.70347541 45.6393443,1.57377049 L45.6393443,11.0163934 C45.6393443,11.8866885 44.9342951,12.5901639 44.0655738,12.5901639" id="Path" fill="#CC3538"></path>
                        <path d="M37.7704918,9.44262295 C36.9017705,9.44262295 36.1967213,8.73914754 36.1967213,7.86885246 L36.1967213,1.57377049 C36.1967213,0.70347541 36.9017705,-1.14575016e-13 37.7704918,-1.14575016e-13 C38.6392131,-1.14575016e-13 39.3442623,0.70347541 39.3442623,1.57377049 L39.3442623,7.86885246 C39.3442623,8.73914754 38.6392131,9.44262295 37.7704918,9.44262295" id="Path" fill="#CC3538"></path>
                        <path d="M31.4754098,12.5901639 C30.6066885,12.5901639 29.9016393,11.8866885 29.9016393,11.0163934 L29.9016393,1.57377049 C29.9016393,0.70347541 30.6066885,-7.81597009e-14 31.4754098,-7.81597009e-14 C32.3441311,-7.81597009e-14 33.0491803,0.70347541 33.0491803,1.57377049 L33.0491803,11.0163934 C33.0491803,11.8866885 32.3441311,12.5901639 31.4754098,12.5901639" id="Path" fill="#CC3538"></path>
                        <path d="M25.1803279,9.44262295 C24.3116066,9.44262295 23.6065574,8.73914754 23.6065574,7.86885246 L23.6065574,1.57377049 C23.6065574,0.70347541 24.3116066,-1.14575016e-13 25.1803279,-1.14575016e-13 C26.0490492,-1.14575016e-13 26.7540984,0.70347541 26.7540984,1.57377049 L26.7540984,7.86885246 C26.7540984,8.73914754 26.0490492,9.44262295 25.1803279,9.44262295" id="Path" fill="#CC3538"></path>
                        <path d="M82.220223,69.2295344 C83.5044197,70.3059934 84.2913049,71.8183869 84.4360918,73.4881574 C84.5840262,75.1579279 84.070977,76.7836328 82.9929443,78.0678295 C81.7543869,79.5440262 79.9728787,80.3057311 78.1819279,80.3057311 C76.7576656,80.3057311 75.328682,79.8257311 74.156223,78.8421246 C72.8720262,77.762518 72.0835672,76.2516984 71.9372066,74.5819279 C71.7924197,72.9121574 72.3054689,71.2864525 73.3819279,70.0038295 C74.4583869,68.718059 75.9707803,67.9311738 77.6405508,67.7863869 C79.3056,67.6274361 80.9360262,68.1515016 82.220223,69.2295344 Z M12.6117246,67.6935344 C16.0708721,67.6935344 18.8847738,70.5074361 18.8847738,73.9665836 C18.8847738,77.4273049 16.0708721,80.2412066 12.6117246,80.2412066 C9.15257705,80.2412066 6.33867541,77.4273049 6.33867541,73.9665836 C6.33867541,70.5074361 9.15257705,67.6935344 12.6117246,67.6935344 Z M78.1929443,70.9087475 C78.1000918,70.9087475 78.0072393,70.9134689 77.9143869,70.9213377 C77.0834361,70.9937311 76.3296,71.3871738 75.7929443,72.0261246 C75.2562885,72.6650754 75.0013377,73.4755672 75.0737311,74.306518 C75.1461246,75.1390426 75.5379934,75.8928787 76.178518,76.4311082 C77.4973377,77.5358951 79.4739934,77.3643541 80.5835016,76.0439607 C81.1185836,75.4050098 81.3735344,74.594518 81.301141,73.7619934 C81.2287475,72.9310426 80.8368787,72.1787803 80.1963541,71.6421246 L80.1963541,71.6405508 C79.628223,71.1636984 78.9247475,70.9087475 78.1929443,70.9087475 Z M12.6117246,70.8410754 C10.8884459,70.8410754 9.48621639,72.2433049 9.48621639,73.9665836 C9.48621639,75.6914361 10.8884459,77.0936656 12.6117246,77.0936656 C14.3350033,77.0936656 15.7372328,75.6914361 15.7372328,73.9665836 C15.7372328,72.2433049 14.3350033,70.8410754 12.6117246,70.8410754 Z M12.6117246,6.31648525 C16.0708721,6.31648525 18.8847738,9.13038689 18.8847738,12.5895344 C18.8847738,16.0502557 16.0708721,18.8641574 12.6117246,18.8641574 C9.15257705,18.8641574 6.33867541,16.0502557 6.33867541,12.5895344 C6.33867541,9.13038689 9.15257705,6.31648525 12.6117246,6.31648525 Z M12.6117246,9.46402623 C10.8884459,9.46402623 9.48621639,10.8662557 9.48621639,12.5895344 C9.48621639,14.3143869 10.8884459,15.7166164 12.6117246,15.7166164 C14.3350033,15.7166164 15.7372328,14.3143869 15.7372328,12.5895344 C15.7372328,10.8662557 14.3350033,9.46402623 12.6117246,9.46402623 Z" id="Shape" fill="#CC3538"></path>
                        <path d="M44.0655738,73.9672131 C43.1968525,73.9672131 42.4918033,73.2637377 42.4918033,72.3934426 L42.4918033,62.9508197 C42.4918033,62.0805246 43.1968525,61.3770492 44.0655738,61.3770492 C44.9342951,61.3770492 45.6393443,62.0805246 45.6393443,62.9508197 L45.6393443,72.3934426 C45.6393443,73.2637377 44.9342951,73.9672131 44.0655738,73.9672131" id="Path" fill="#CC3538"></path>
                        <path d="M37.7704918,70.8196721 C36.9017705,70.8196721 36.1967213,70.1161967 36.1967213,69.2459016 L36.1967213,62.9508197 C36.1967213,62.0805246 36.9017705,61.3770492 37.7704918,61.3770492 C38.6392131,61.3770492 39.3442623,62.0805246 39.3442623,62.9508197 L39.3442623,69.2459016 C39.3442623,70.1161967 38.6392131,70.8196721 37.7704918,70.8196721" id="Path" fill="#CC3538"></path>
                        <path d="M31.4754098,73.9672131 C30.6066885,73.9672131 29.9016393,73.2637377 29.9016393,72.3934426 L29.9016393,62.9508197 C29.9016393,62.0805246 30.6066885,61.3770492 31.4754098,61.3770492 C32.3441311,61.3770492 33.0491803,62.0805246 33.0491803,62.9508197 L33.0491803,72.3934426 C33.0491803,73.2637377 32.3441311,73.9672131 31.4754098,73.9672131" id="Path" fill="#CC3538"></path>
                        <path d="M25.1803279,70.8196721 C24.3116066,70.8196721 23.6065574,70.1161967 23.6065574,69.2459016 L23.6065574,62.9508197 C23.6065574,62.0805246 24.3116066,61.3770492 25.1803279,61.3770492 C26.0490492,61.3770492 26.7540984,62.0805246 26.7540984,62.9508197 L26.7540984,69.2459016 C26.7540984,70.1161967 26.0490492,70.8196721 25.1803279,70.8196721" id="Path" fill="#CC3538"></path>
                        <path d="M16.4816262,36.7130754 C16.133823,36.7130754 15.7860197,36.5997639 15.4948721,36.3636984 C14.8181508,35.8191738 14.7111344,34.8292721 15.2572328,34.150977 L18.4881836,30.1441574 C19.034282,29.4674361 20.0257574,29.3619934 20.7009049,29.9080918 C21.3776262,30.4526164 21.4830689,31.442518 20.9385443,32.1208131 L17.7075934,36.1276328 C17.3975607,36.5132066 16.9411672,36.7130754 16.4816262,36.7130754" id="Path" fill="#CC3538"></path>
                        <path d="M21.1736656,40.7565639 C20.8164197,40.7565639 20.4576,40.6353836 20.1617311,40.3883016 C19.4976,39.8296131 19.4094689,38.8365639 19.9681574,38.170859 L25.3520262,31.7561705 C25.9122885,31.0888918 26.9037639,31.005482 27.5694689,31.5625967 C28.2351738,32.1212852 28.3217311,33.1143344 27.7630426,33.7784656 L22.3807475,40.1947279 C22.069141,40.5661377 21.6221902,40.7565639 21.1736656,40.7565639" id="Path" fill="#CC3538"></path>
                        <path d="M25.9373115,44.8738623 C25.5800656,44.8738623 25.2212459,44.752682 24.9269508,44.5071738 C24.2612459,43.9469115 24.1731148,42.9538623 24.7318033,42.2881574 L28.1516066,38.2136656 C28.7102951,37.5448131 29.7017705,37.462977 30.3674754,38.018518 C31.0347541,38.5772066 31.1213115,39.5702557 30.562623,40.2359607 L27.1443934,44.3120262 C26.8327869,44.6834361 26.3858361,44.8738623 25.9373115,44.8738623" id="Path" fill="#CC3538"></path>
                        <path d="M30.7008,48.9897443 C30.3435541,48.9897443 29.9847344,48.8685639 29.6904393,48.621482 C29.0247344,48.0627934 28.9366033,47.0697443 29.4952918,46.4040393 L34.9971934,39.8477115 C35.555882,39.1804328 36.5505049,39.0954492 37.2146361,39.6541377 C37.880341,40.2128262 37.9668984,41.2058754 37.4082098,41.8715803 L31.907882,48.4279082 C31.5962754,48.799318 31.1493246,48.9897443 30.7008,48.9897443" id="Path" fill="#CC3538"></path>
                        <path d="M35.4644459,53.1054689 C35.1072,53.1054689 34.7483803,52.9842885 34.4540852,52.7372066 C33.7883803,52.178518 33.7002492,51.1854689 34.2589377,50.5197639 L37.7952,46.3067803 C38.3554623,45.6395016 39.3485115,45.554518 40.0126426,46.1132066 C40.6783475,46.6703213 40.7664787,47.6633705 40.2077902,48.3290754 L36.6715279,52.5436328 C36.3599213,52.9150426 35.9129705,53.1054689 35.4644459,53.1054689" id="Path" fill="#CC3538"></path>
                        <path d="M40.2279344,57.2227672 C39.8706885,57.2227672 39.5118689,57.1015869 39.2175738,56.8545049 C38.5518689,56.2958164 38.4637377,55.3027672 39.0224262,54.6370623 L44.6423607,47.9422426 C45.2010492,47.2733902 46.1956721,47.1899803 46.8582295,47.7470951 C47.5255082,48.3057836 47.6120656,49.2988328 47.053377,49.9645377 L41.4350164,56.6609311 C41.1234098,57.032341 40.676459,57.2227672 40.2279344,57.2227672" id="Path" fill="#CC3538"></path>
                        <path d="M44.9915803,61.3386492 C44.6343344,61.3386492 44.2755148,61.2174689 43.9796459,60.9703869 C43.3155148,60.4116984 43.2273836,59.4186492 43.7860721,58.7529443 L47.4403672,54.3998951 C48.0006295,53.7310426 48.9921049,53.646059 49.6578098,54.2063213 C50.3235148,54.7634361 50.4100721,55.7564852 49.8513836,56.4221902 L46.1986623,60.7768131 C45.8870557,61.148223 45.4401049,61.3386492 44.9915803,61.3386492" id="Path" fill="#CC3538"></path>
                        <path d="M49.7550689,65.4543738 C49.397823,65.4543738 49.0390033,65.3331934 48.7431344,65.0861115 C48.0790033,64.527423 47.9908721,63.5343738 48.5495607,62.8686689 L54.2859541,56.0353574 C54.8446426,55.3680787 55.8376918,55.2830951 56.5049705,55.8417836 C57.1691016,56.3988984 57.2572328,57.3919475 56.6985443,58.0576525 L50.9621508,64.8925377 C50.6505443,65.2639475 50.2035934,65.4543738 49.7550689,65.4543738" id="Path" fill="#CC3538"></path>
                        <path d="M54.5187148,69.5716721 C54.1614689,69.5716721 53.8026492,69.4504918 53.5083541,69.2034098 C52.8426492,68.6447213 52.754518,67.6516721 53.3132066,66.9859672 L57.0855344,62.4912787 C57.6426492,61.8224262 58.6388459,61.7390164 59.302977,62.2977049 C59.968682,62.8548197 60.0552393,63.8478689 59.4965508,64.5135738 L55.7257967,69.0098361 C55.4141902,69.3812459 54.9672393,69.5716721 54.5187148,69.5716721" id="Path" fill="#CC3538"></path>
                        <path d="M59.2829902,73.6873967 C58.9257443,73.6873967 58.5669246,73.5662164 58.2726295,73.3191344 C57.6069246,72.7604459 57.5187934,71.7673967 58.077482,71.1016918 L63.9303344,64.126741 C64.4905967,63.4578885 65.4836459,63.3729049 66.147777,63.9331672 C66.813482,64.490282 66.9000393,65.4833311 66.3413508,66.1490361 L60.4900721,73.1255607 C60.1784656,73.4969705 59.7315148,73.6873967 59.2829902,73.6873967" id="Path" fill="#CC3538"></path>
                        <path d="M3.70622951,3.14754098 C3.39777049,3.14754098 3.14754098,3.39777049 3.14754098,3.70465574 L3.14754098,21.3843934 C3.14754098,21.7416393 3.43868852,22.0327869 3.79593443,22.0327869 L89.704918,22.0327869 C90.5720656,22.0327869 91.2786885,21.3277377 91.2786885,20.4590164 L91.2786885,4.72131148 C91.2786885,3.85259016 90.5720656,3.14754098 89.704918,3.14754098 L3.70622951,3.14754098 Z M89.704918,25.1803279 L3.79593443,25.1803279 C1.70281967,25.1803279 -3.55271368e-14,23.4775082 -3.55271368e-14,21.3843934 L-3.55271368e-14,3.70465574 C-3.55271368e-14,1.66347541 1.66347541,-1.58095759e-13 3.70622951,-1.58095759e-13 L89.704918,-1.58095759e-13 C92.3079344,-1.58095759e-13 94.4262295,2.11829508 94.4262295,4.72131148 L94.4262295,20.4590164 C94.4262295,23.0620328 92.3079344,25.1803279 89.704918,25.1803279 L89.704918,25.1803279 Z" id="Shape" fill="#CC3538"></path>
                        <path d="M7.37547541,25.1803279 L77.8961311,86.1167213 C78.2754098,86.4361967 78.7711475,86.5841311 79.2983607,86.5495082 C79.8145574,86.5054426 80.283541,86.2615082 80.6171803,85.8633443 L91.1472787,73.3125246 C91.2785721,73.1582951 91.2841967,72.9914754 91.2763279,72.904918 C91.2700328,72.8199344 91.2338361,72.6562623 91.0796066,72.5272131 L34.6552131,25.1803279 L7.37547541,25.1803279 Z M79.1189508,89.704918 C77.9260328,89.704918 76.7803279,89.2894426 75.8549508,88.512 L2.11908197,24.7979016 C1.62177049,24.3666885 1.44236066,23.6742295 1.67213115,23.0573115 C1.90190164,22.4419672 2.4904918,22.0327869 3.1467541,22.0327869 L35.2280656,22.0327869 C35.5979016,22.0327869 35.9567213,22.1634098 36.2384262,22.4010492 L93.1019016,70.1161967 C93.860459,70.7504262 94.3262951,71.6443279 94.4128525,72.631082 C94.4978361,73.6178361 94.1956721,74.5794098 93.5582951,75.3363934 L83.0281967,87.8856393 C82.1547541,88.9274754 80.9272131,89.5664262 79.5721967,89.684459 C79.4211148,89.698623 79.2700328,89.704918 79.1189508,89.704918 L79.1189508,89.704918 Z" id="Shape" fill="#CC3538"></path>
                        <path d="M86.4398164,64.5245902 L91.2791607,68.584918 L91.2791607,66.0983607 C91.2791607,65.2296393 90.5725377,64.5245902 89.7053902,64.5245902 L86.4398164,64.5245902 Z M86.7844721,83.4098361 L89.7053902,83.4098361 C90.5725377,83.4098361 91.2791607,82.7047869 91.2791607,81.8360656 L91.2791607,78.0542951 L86.7844721,83.4098361 Z M89.7053902,86.557377 L83.4103082,86.557377 C82.7981115,86.557377 82.2425705,86.2017049 81.9828984,85.6493115 C81.7248,85.0937705 81.8113574,84.4406557 82.2048,83.9716721 L91.1485377,73.3125246 C91.2524066,73.1881967 91.2775869,73.0544262 91.2791607,72.9631475 L91.2791607,72.9426885 C91.2791607,72.9285246 91.2775869,72.9159344 91.2760131,72.904918 C91.269718,72.8199344 91.2335213,72.6562623 91.0792918,72.5272131 L81.1047344,64.1563279 C80.5979803,63.7314098 80.4107016,63.0342295 80.6373246,62.4125902 C80.8639475,61.7909508 81.4541115,61.3770492 82.1150951,61.3770492 L89.7053902,61.3770492 C92.3084066,61.3770492 94.4267016,63.4953443 94.4267016,66.0983607 L94.4267016,72.9001967 L94.4267016,73.0166557 L94.4267016,81.8360656 C94.4267016,84.439082 92.3084066,86.557377 89.7053902,86.557377 L89.7053902,86.557377 Z" id="Shape" fill="#CC3538"></path>
                        <path d="M3.70622951,64.5245902 C3.39777049,64.5245902 3.14754098,64.7748197 3.14754098,65.0817049 L3.14754098,82.8511475 C3.14754098,83.1596066 3.39777049,83.4098361 3.70622951,83.4098361 L69.949377,83.4098361 L48.0944262,64.5245902 L3.70622951,64.5245902 Z M74.1765246,86.557377 L3.70622951,86.557377 C1.66347541,86.557377 7.10542736e-15,84.8939016 7.10542736e-15,82.8511475 L7.10542736e-15,65.0817049 C7.10542736e-15,63.0405246 1.66347541,61.3770492 3.70622951,61.3770492 L48.6798689,61.3770492 C49.0575738,61.3770492 49.4226885,61.5123934 49.707541,61.7594754 L75.2057705,83.7922623 C75.703082,84.2234754 75.880918,84.9159344 75.6511475,85.5328525 C75.4229508,86.1481967 74.8343607,86.557377 74.1765246,86.557377 L74.1765246,86.557377 Z" id="Shape" fill="#CC3538"></path>
                        <path d="M3.70622951,3.14754098 C3.39777049,3.14754098 3.14754098,3.39777049 3.14754098,3.70465574 L3.14754098,21.3843934 C3.14754098,21.7416393 3.43868852,22.0327869 3.79593443,22.0327869 L89.704918,22.0327869 C90.5720656,22.0327869 91.2786885,21.3277377 91.2786885,20.4590164 L91.2786885,4.72131148 C91.2786885,3.85259016 90.5720656,3.14754098 89.704918,3.14754098 L3.70622951,3.14754098 Z M89.704918,25.1803279 L3.79593443,25.1803279 C1.70281967,25.1803279 0,23.4775082 0,21.3843934 L0,3.70465574 C0,1.66347541 1.66347541,0 3.70622951,0 L89.704918,0 C92.3079344,0 94.4262295,2.11829508 94.4262295,4.72131148 L94.4262295,20.4590164 C94.4262295,23.0620328 92.3079344,25.1803279 89.704918,25.1803279 L89.704918,25.1803279 Z" id="Shape" fill="#CC3538"></path>
                    </g>
                </g>
            </g>
        </g>
    </g>
</svg>