<?xml version="1.0" encoding="UTF-8"?>
<svg width="58px" height="49px" viewBox="0 0 58 49" version="1.1" xmlns="http://www.w3.org/2000/svg" xmlns:xlink="http://www.w3.org/1999/xlink">
    <title>ic-financial</title>
    <g id="Page-1" stroke="none" stroke-width="1" fill="none" fill-rule="evenodd">
        <g id="Acquisitions" transform="translate(-641.000000, -923.000000)" fill="#109FDA" fill-rule="nonzero">
            <g id="Shape" transform="translate(641.000000, 923.000000)">
                <path d="M34.1264267,0.0148866667 C34.1007617,0.0132675 34.078915,0 34.052815,0 L23.947185,0 C10.6867178,0.121535465 0.000996817568,10.9056426 0.000996817568,24.1666667 C0.000996817568,37.4276907 10.6867178,48.211798 23.947185,48.3333333 L34.052815,48.3333333 C34.078915,48.3333333 34.1007617,48.3200658 34.1264267,48.3184467 C47.3555923,48.1646877 57.9991165,37.3967378 57.9991165,24.1666788 C57.9991165,10.9366196 47.3555923,0.168669847 34.1264267,0.0149108333 L34.1264267,0.0148866667 Z M2.4165472,24.1666667 C2.37822874,12.4789315 11.6196603,2.86863875 23.2999533,2.4498475 C14.9643184,6.47242624 9.66668433,14.9111725 9.66668433,24.1666546 C9.66668433,33.4221368 14.9643184,41.860883 23.2999533,45.8834617 C11.6196697,45.4646707 2.37824181,35.8543924 2.4165472,24.1666667 Z M33.8333333,45.9166667 C21.82114,45.9166667 12.0833333,36.1788599 12.0833333,24.1666667 C12.0833333,12.1544734 21.82114,2.41666667 33.8333333,2.41666667 C45.8455265,2.41666667 55.5833333,12.1544734 55.5833333,24.1666667 C55.5693901,36.1730797 45.8397463,45.9027235 33.8333333,45.9166667 L33.8333333,45.9166667 Z"></path>
                <path d="M39.875,15.7083333 C40.5423441,15.7083333 41.0833333,15.1673441 41.0833333,14.5 C41.0833333,13.8326559 40.5423441,13.2916667 39.875,13.2916667 L35.0416667,13.2916667 L35.0416667,10.875 C35.0416667,10.2076559 34.5006775,9.66666667 33.8333333,9.66666667 C33.1659892,9.66666667 32.625,10.2076559 32.625,10.875 L32.625,13.3984592 C29.3461377,13.6979066 26.7783554,16.3486898 26.5833333,19.6354167 C26.7783554,22.9221435 29.3461377,25.5729267 32.625,25.8723742 L32.625,33.8333333 L27.7916667,33.8333333 C27.1243225,33.8333333 26.5833333,34.3743225 26.5833333,35.0416667 C26.5833333,35.7090108 27.1243225,36.25 27.7916667,36.25 L32.625,36.25 L32.625,37.4583333 C32.625,38.1256775 33.1659892,38.6666667 33.8333333,38.6666667 C34.5006775,38.6666667 35.0416667,38.1256775 35.0416667,37.4583333 L35.0416667,36.1432075 C38.3205289,35.84376 40.8883112,33.1929768 41.0833333,29.90625 C40.8883112,26.6195232 38.3205289,23.9687399 35.0416667,23.6692925 L35.0416667,15.7083333 L39.875,15.7083333 Z M29,19.6354167 C29.1660151,17.6769255 30.6756785,16.0995084 32.625,15.8477267 L32.625,23.4231067 C30.6756785,23.1713249 29.1660151,21.5939079 29,19.6354167 L29,19.6354167 Z M38.6666667,29.90625 C38.5006516,31.8647411 36.9909882,33.4421584 35.0416667,33.69394 L35.0416667,26.11856 C36.9909882,26.3703416 38.5006516,27.9477589 38.6666667,29.90625 Z"></path>
            </g>
        </g>
    </g>
</svg>