<?xml version="1.0" encoding="UTF-8"?>
<svg width="42px" height="60px" viewBox="0 0 42 60" version="1.1" xmlns="http://www.w3.org/2000/svg" xmlns:xlink="http://www.w3.org/1999/xlink">
    <title>ic-highrise</title>
    <g id="Page-1" stroke="none" stroke-width="1" fill="none" fill-rule="evenodd">
        <g id="Desktop-HD" transform="translate(-152.000000, -1858.000000)" stroke="#109FDA" stroke-width="2">
            <g id="Group-15" transform="translate(125.000000, 1654.000000)">
                <g id="Group-13" transform="translate(0.000000, 184.000000)">
                    <g id="ic-highrise" transform="translate(28.000000, 21.000000)">
                        <polygon id="Path" points="20 6 2 6 2 58 38 58 38 6"></polygon>
                        <path d="M38,6 L2,6 C0.895,6 0,5.105 0,4 L0,2 C0,0.895 0.895,0 2,0 L38,0 C39.105,0 40,0.895 40,2 L40,4 C40,5.105 39.105,6 38,6 L38,6 Z" id="Path"></path>
                        <polygon id="Path" points="17 14 23 14 23 10 17 10"></polygon>
                        <polygon id="Path" points="7 14 13 14 13 10 7 10"></polygon>
                        <polygon id="Path" points="27 14 33 14 33 10 27 10"></polygon>
                        <polygon id="Path" points="17 22 23 22 23 18 17 18"></polygon>
                        <polygon id="Path" points="7 22 13 22 13 18 7 18"></polygon>
                        <polygon id="Path" points="27 22 33 22 33 18 27 18"></polygon>
                        <polygon id="Path" points="17 30 23 30 23 26 17 26"></polygon>
                        <polygon id="Path" points="7 30 13 30 13 26 7 26"></polygon>
                        <polygon id="Path" points="27 30 33 30 33 26 27 26"></polygon>
                        <polygon id="Path" points="17 38 23 38 23 34 17 34"></polygon>
                        <polygon id="Path" points="7 38 13 38 13 34 7 34"></polygon>
                        <polygon id="Path" points="27 38 33 38 33 34 27 34"></polygon>
                        <polygon id="Path" points="17 46 23 46 23 42 17 42"></polygon>
                        <polygon id="Path" points="7 46 13 46 13 42 7 42"></polygon>
                        <polygon id="Path" points="27 46 33 46 33 42 27 42"></polygon>
                        <polygon id="Path" points="27 58 33 58 33 50 27 50"></polygon>
                        <polygon id="Path" points="7 58 23 58 23 50 7 50"></polygon>
                    </g>
                </g>
            </g>
        </g>
    </g>
</svg>