<?xml version="1.0" encoding="UTF-8"?>
<svg width="96px" height="96px" viewBox="0 0 96 96" version="1.1" xmlns="http://www.w3.org/2000/svg" xmlns:xlink="http://www.w3.org/1999/xlink">
    <title>ic-join</title>
    <g id="Page-1" stroke="none" stroke-width="1" fill="none" fill-rule="evenodd">
        <g id="Desktop-HD" transform="translate(-344.000000, -2329.000000)">
            <g id="Group-18" transform="translate(80.000000, 2305.000000)">
                <g id="ic-join" transform="translate(264.000000, 24.000000)">
                    <circle id="Oval" stroke="#109FDA" stroke-width="3" cx="48" cy="48" r="46.5"></circle>
                    <path d="M19.8651245,9.1057586 L21.6215172,10.1594483 L38.2444138,26.7707586 C40.8849704,26.943271 43.4113418,27.9115788 45.4907586,29.5481379 C50.9236419,24.9237363 58.4306675,23.594499 65.1211034,26.0722759 C68.1433975,24.5416457 70.9078111,22.5479171 73.3142069,20.1633103 L73.4151724,20.0954483 L73.4151724,20.0954483 L73.4615172,20.0275862 L80.6644098,12.8281949 C81.4727647,13.5792663 82.2551891,14.3578663 83.0101916,15.1625036 L75.801931,22.3713103 L75.6976552,22.4391724 L75.6976552,22.4391724 L75.6513103,22.5103448 L75.6513103,22.5103448 C73.5665447,24.5457595 71.2692372,26.3514209 68.7988966,27.8962759 C70.0175318,28.6638652 71.1476895,29.5636616 72.1688276,30.5793103 C72.5996476,30.9942819 72.7730484,31.6094165 72.622388,32.1883021 C72.4717274,32.7671879 72.0204498,33.219744 71.4419926,33.3720414 C70.8635354,33.5243389 70.2479128,33.3526788 69.8317241,32.9230345 C63.5487901,26.671809 53.4673999,26.5560456 47.0437824,32.5757442 L46.6841379,32.9230345 L41.4322759,38.1715862 L39.8797375,39.7416485 L39.1089917,40.4987618 L39.1089917,40.4987618 L38.976,40.6212414 L33.2242759,46.3613793 C33.0273103,46.5583448 32.9544828,46.7155862 32.9544828,46.7768276 C32.9875862,46.9953103 33.3732414,47.5017931 34.2786207,47.9884138 C36.1522759,49.0013793 38.6433103,48.2664828 40.4027586,47.4736552 C42.7023332,46.3687943 44.8733203,45.0161901 46.8773538,43.4404756 L47.6209655,42.8391724 L48.662069,42.0115862 C50.4262732,40.6442036 52.0835032,39.14412 53.6193103,37.5244138 C54.232033,36.98166 55.1277569,36.9364305 55.7876464,37.3887253 L55.9613793,37.5244138 L77.7235862,59.2551724 C81.559179,53.7135185 81.5828719,46.3812225 77.7831724,40.8148966 C77.280841,40.0739525 77.4586292,39.0678925 78.1844809,38.5439896 C78.9103326,38.0200868 79.9211858,38.1682133 80.4662069,38.8783448 C81.6381879,40.5170366 82.528122,42.3381973 83.1008772,44.2664788 L83.28,44.9131034 L93.9940754,34.2247605 C94.4631003,35.7930425 94.8541036,37.3950103 95.1625799,39.0261585 L94.2521379,38.6383448 L83.8973793,48.9666207 C84.0902945,53.6482553 82.6523336,58.251719 79.8289655,61.9911724 C80.5417389,63.7610887 80.3273376,65.7696195 79.2570212,67.3491992 C78.2535997,68.8300552 76.6211805,69.7519787 74.8488717,69.8565443 L74.4463448,69.8664828 L74.4463448,69.9128276 C74.4454676,71.4370979 73.8388853,72.898541 72.7601323,73.9754312 C71.7643603,74.9694839 70.441618,75.560648 69.045132,75.6443326 L68.6482759,75.6546207 L68.6482759,75.7009655 C68.6473986,77.2252358 68.0408163,78.6866789 66.9620633,79.7635692 C65.9662913,80.7576219 64.643549,81.3487859 63.247063,81.4324705 L62.8502069,81.4427586 L62.8502069,81.4891034 C62.8505235,83.6593116 61.6254902,85.6437026 59.6852385,86.6159305 C57.8527786,87.5341457 55.679011,87.4008906 53.9788149,86.2886351 L53.6838621,86.0822069 L49.5773793,90.1804138 C48.1062854,91.6487662 45.9566562,92.2077403 43.9566298,91.6419929 C41.9566034,91.0762457 40.4182994,89.4740663 39.9343448,87.4526897 C39.3087368,87.6833747 38.6479994,87.8043233 37.9812414,87.8102069 C34.9907762,87.8254578 32.4984371,85.5240028 32.2758621,82.5417931 C32.0564906,82.5748658 31.835468,82.595863 31.6137931,82.6046897 C30.0862032,82.6099337 28.6195688,82.0058854 27.5387586,80.9263448 C26.4560561,79.8518574 25.8491568,78.3882642 25.8537931,76.8628966 C25.8601622,76.4282367 25.9156878,75.9956928 26.0193103,75.5735172 C24.8434941,75.3814639 23.757194,74.8264495 22.9125517,73.9862069 C21.8300061,72.9116142 21.2231351,71.4480897 21.2275862,69.9227586 C21.2275862,69.792 21.2573793,69.6662069 21.2656552,69.5371034 C20.2498826,68.7960463 19.2833093,67.9903383 18.3718893,67.1251072 L17.615575,66.3782349 L17.615575,66.3782349 L17.379034,66.1081645 L17.379034,66.1081645 L17.1259438,65.7900881 L17.1259438,65.7900881 L16.8238707,65.3731293 L16.8238707,65.3731293 L16.6023379,65.0402833 L16.6023379,65.0402833 L16.3696278,64.6635813 C16.3301468,64.597145 16.2903765,64.5288829 16.2504054,64.4587958 L16.0088743,64.0163787 C14.7153838,61.5400841 13.3969655,57.1965199 14.9462069,51.0107586 C15.992069,46.8474828 13.0446659,41.8899181 10.1177202,38.2137988 L9.5337931,37.4962759 L3.08060741,31.0443033 C3.50331822,29.9250209 3.96666317,28.8256835 4.46884297,27.7480905 L11.9172414,35.1856552 L11.9569655,35.2435862 L12.0231724,35.2965517 C17.270069,41.5812414 19.3357241,47.136 18.1622069,51.8085517 C16.8480736,57.0522851 17.944678,60.5836865 18.9349176,62.4762935 L19.1374514,62.8445079 C19.1706789,62.9019878 19.2035735,62.9575251 19.236032,63.0111228 L19.4247241,63.3094581 L19.4247241,63.3094581 L19.6773015,63.6699965 L19.6773015,63.6699965 L19.878464,63.9266116 L19.878464,63.9266116 L20.054069,64.1246897 L20.054069,64.1246897 C20.833395,64.9073702 21.6585757,65.6430136 22.5252414,66.3277241 L22.7151859,66.0850925 L22.7151859,66.0850925 L22.9175172,65.8526897 L28.118069,60.6604138 L24.6571034,57.2044138 C24.0288579,56.5558565 24.0363391,55.5234523 24.6739175,54.8840676 C25.2624516,54.2938664 26.1873835,54.2396033 26.837702,54.7274346 L26.9942069,54.8606897 L31.6286897,59.4951724 L37.4217931,65.2783448 L43.2148966,71.0714483 L55.3754483,83.2088276 C56.330762,84.1608414 57.8761346,84.1608414 58.8314483,83.2088276 C59.2881031,82.7530234 59.5447207,82.1343097 59.5447207,81.4891034 C59.5447207,80.924548 59.3482478,80.3802759 58.9932066,79.9476758 L58.8314483,79.7693793 L42.0314483,62.9975172 C41.6006282,62.5825457 41.4272274,61.9674111 41.5778878,61.3885255 C41.7285484,60.8096397 42.179826,60.3570836 42.7582833,60.2047862 C43.2724674,60.0694106 43.8160169,60.1900015 44.2227603,60.5202238 L44.3685517,60.6537931 L61.1685517,77.4256552 C62.1238654,78.377669 63.669238,78.377669 64.6245517,77.4256552 C65.0812065,76.969851 65.3378241,76.3511373 65.3378241,75.705931 C65.3378241,75.1413756 65.1413513,74.5971035 64.78631,74.1645034 L64.6245517,73.9862069 L47.8245517,57.2126897 C47.3937317,56.7977181 47.2203309,56.1825835 47.3709913,55.6036979 C47.5216519,55.0248121 47.9729295,54.572256 48.5513868,54.4199586 C49.0655709,54.284583 49.6091203,54.405174 50.0158637,54.7353962 L50.1616552,54.8689655 L66.9616552,71.6424828 C67.9177175,72.5926833 69.4615928,72.5926833 70.4176552,71.6424828 C70.87431,71.1866786 71.1309276,70.5679649 71.1309276,69.9227586 C71.1309276,69.3582032 70.9344547,68.813931 70.5794135,68.381331 L70.4176552,68.2030345 L53.6176552,51.4295172 C53.1868351,51.0145457 53.0134343,50.3994111 53.1640947,49.8205255 C53.3147553,49.2416397 53.7660329,48.7890836 54.3444902,48.6367862 C54.8586743,48.5014106 55.4022238,48.6220015 55.8089672,48.9522238 L55.9547586,49.0857931 L72.7547586,65.8593103 C73.710821,66.8095109 75.2546963,66.8095109 76.2107586,65.8593103 C76.6675137,65.4032234 76.9241724,64.7842356 76.9241724,64.1387586 C76.9241724,63.5739662 76.7276681,63.0294546 76.3725518,62.596609 L76.2107586,62.4182069 L54.7862069,41.0234483 C53.7654449,42.0500757 52.690719,43.0212227 51.5666828,43.9327957 L49.6932414,45.4129655 C47.2721401,47.4276773 44.6087429,49.1319178 41.7649655,50.486069 C40.0868185,51.2908681 38.2577308,51.7324888 36.3972414,51.782069 C35.1122082,51.8001666 33.8431546,51.4957076 32.7062069,50.8965517 C31.1790121,50.228929 30.0571841,48.8788078 29.6805517,47.2551724 C29.5349754,46.1361419 29.9086287,45.0174571 30.6848089,44.212246 L30.8871724,44.0176552 L36.746069,38.172 L36.746069,38.172 L36.9792132,37.9566124 L36.9792132,37.9566124 L38.0227746,36.9138124 L38.0227746,36.9138124 L39.0703448,35.8493793 L43.065931,31.8571034 C40.3410809,29.9246006 36.8196349,29.5128814 33.7224828,30.7646897 C33.1737228,30.9858493 32.5486605,30.8974494 32.0827505,30.5327892 C31.6168406,30.1681291 31.380866,29.5826092 31.463716,28.9967892 C31.5465661,28.4109693 31.9356538,27.9138493 32.4844138,27.6926897 C32.8145898,27.5648747 33.1496628,27.4502947 33.4888302,27.3492062 L34.0005517,27.2077241 L17.7517241,10.9721379 C17.6085943,11.0137502 17.4518215,11.0624369 17.2814057,11.1181981 C18.1171341,10.4183881 18.9797465,9.74732775 19.8651245,9.1057586 Z M47.8344828,80.3586207 L49.9067586,82.4275862 L51.2855172,83.8046897 L47.2452414,87.8366897 C46.2899277,88.7887034 44.7445551,88.7887034 43.7892414,87.8366897 C43.3321794,87.381102 43.0752804,86.762307 43.0752804,86.1169655 C43.0752804,85.4716241 43.3321794,84.8528291 43.7892414,84.3972414 L47.8344828,80.3586207 Z M42.0413793,74.5754483 L45.4924138,78.0198621 L42.182069,81.3302069 L39.7224828,83.7864828 C38.7669868,84.7364913 37.2236339,84.7364913 36.2681379,83.7864828 C35.8114831,83.3306786 35.5548655,82.7119649 35.5548655,82.0667586 C35.5548655,81.4215524 35.8114831,80.8028387 36.2681379,80.3470345 L36.2582069,80.3486897 L42.0413793,74.5754483 Z M36.2482759,68.7922759 L39.6993103,72.2366897 L37.7611034,74.1715862 L33.3401379,78.585931 C32.384642,79.5359396 30.841289,79.5359396 29.8857931,78.585931 C29.429038,78.1298441 29.1723794,77.5108563 29.1723794,76.8653793 C29.1723794,76.2199023 29.429038,75.6009145 29.8857931,75.1448276 L29.8857931,75.1431724 L36.2482759,68.7922759 Z M30.4551724,63.0074483 L33.9062069,66.4535172 L31.2215172,69.1332414 L28.7056552,71.6441379 C27.7501592,72.5941465 26.2068063,72.5941465 25.2513103,71.6441379 C24.7946556,71.1883337 24.538038,70.56962 24.538038,69.9244138 C24.538038,69.2792076 24.7946556,68.6604938 25.2513103,68.2046897 L25.2513103,68.2030345 L30.4551724,63.0074483 Z" id="Path-3" fill="#109FDA"></path>
                </g>
            </g>
        </g>
    </g>
</svg>