<?xml version="1.0" encoding="UTF-8"?>
<svg width="58px" height="58px" viewBox="0 0 58 58" version="1.1" xmlns="http://www.w3.org/2000/svg" xmlns:xlink="http://www.w3.org/1999/xlink">
    <title>ic-shop</title>
    <g id="Page-1" stroke="none" stroke-width="1" fill="none" fill-rule="evenodd">
        <g id="Desktop-HD" transform="translate(-363.000000, -1857.000000)" fill="#109FDA" fill-rule="nonzero">
            <g id="Group-15" transform="translate(125.000000, 1654.000000)">
                <g id="ic-shop" transform="translate(238.000000, 203.000000)">
                    <path d="M55,5 L55,0 L3,0 L3,5 L0,5 L0,11 L0,13 L0,18 L0,58 L4,58 L10,58 L13,58 L30,58 L32,58 L49,58 L58,58 L58,18 L58,13 L58,11 L58,5 L55,5 Z M5,2 L53,2 L53,5 L5,5 L5,2 Z M48,18 C48,19.65 46.65,21 45,21 C43.35,21 42,19.65 42,18 L42,13 L48,13 L48,18 Z M40,18 C40,19.65 38.65,21 37,21 C35.35,21 34,19.65 34,18 L34,13 L40,13 L40,18 Z M32,18 C32,19.65 30.65,21 29,21 C27.35,21 26,19.65 26,18 L26,13 L32,13 L32,18 Z M24,18 C24,19.65 22.65,21 21,21 C19.35,21 18,19.65 18,18 L18,13 L24,13 L24,18 Z M16,18 C16,19.65 14.65,21 13,21 C11.35,21 10,19.65 10,18 L10,13 L16,13 L16,18 Z M8,18 C8,19.65 6.65,21 5,21 C3.35,21 2,19.65 2,18 L2,13 L8,13 L8,18 Z M13,56 L13,28 L28,28 L28,56 L13,56 Z M30,56 L30,28 L45,28 L45,56 L30,56 Z M47,56 L47,26 L32,26 L30,26 L11,26 L11,56 L2,56 L2,21.97 C2.84,22.61 3.87,23 5,23 C6.64,23 8.09,22.19 9,20.97 C9.91,22.19 11.36,23 13,23 C14.64,23 16.09,22.19 17,20.97 C17.91,22.2 19.36,23 21,23 C22.64,23 24.09,22.19 25,20.97 C25.91,22.2 27.36,23 29,23 C30.64,23 32.09,22.19 33,20.97 C33.91,22.2 35.36,23 37,23 C38.64,23 40.09,22.19 41,20.97 C41.91,22.2 43.36,23 45,23 C46.64,23 48.09,22.19 49,20.97 C49.91,22.2 51.36,23 53,23 C54.13,23 55.16,22.61 56,21.97 L56,56 L47,56 Z M56,18 C56,19.65 54.65,21 53,21 C51.35,21 50,19.65 50,18 L50,13 L56,13 L56,18 Z M50,11 L48,11 L42,11 L40,11 L34,11 L32,11 L26,11 L24,11 L18,11 L16,11 L10,11 L8,11 L2,11 L2,7 L3,7 L55,7 L56,7 L56,11 L50,11 Z" id="Shape"></path>
                    <path d="M32,37 C32.26,37 32.51,36.9 32.71,36.71 L34.71,34.71 C35.1,34.32 35.1,33.69 34.71,33.3 C34.32,32.91 33.69,32.91 33.3,33.3 L31.3,35.3 C30.91,35.69 30.91,36.32 31.3,36.71 C31.49,36.9 31.74,37 32,37 Z" id="Path"></path>
                    <path d="M39.29,33.29 L31.29,41.29 C30.9,41.68 30.9,42.31 31.29,42.7 C31.49,42.9 31.74,43 32,43 C32.26,43 32.51,42.9 32.71,42.71 L40.71,34.71 C41.1,34.32 41.1,33.69 40.71,33.3 C40.32,32.91 39.68,32.9 39.29,33.29 Z" id="Path"></path>
                    <path d="M39.29,39.29 L31.29,47.29 C30.9,47.68 30.9,48.31 31.29,48.7 C31.49,48.9 31.74,49 32,49 C32.26,49 32.51,48.9 32.71,48.71 L40.71,40.71 C41.1,40.32 41.1,39.69 40.71,39.3 C40.32,38.91 39.68,38.9 39.29,39.29 Z" id="Path"></path>
                    <path d="M18,37 C18.26,37 18.51,36.9 18.71,36.71 L20.71,34.71 C21.1,34.32 21.1,33.69 20.71,33.3 C20.32,32.91 19.69,32.91 19.3,33.3 L17.3,35.3 C16.91,35.69 16.91,36.32 17.3,36.71 C17.49,36.9 17.74,37 18,37 Z" id="Path"></path>
                    <path d="M25.29,33.29 L17.29,41.29 C16.9,41.68 16.9,42.31 17.29,42.7 C17.49,42.9 17.74,43 18,43 C18.26,43 18.51,42.9 18.71,42.71 L26.71,34.71 C27.1,34.32 27.1,33.69 26.71,33.3 C26.32,32.91 25.68,32.9 25.29,33.29 Z" id="Path"></path>
                    <path d="M25.29,39.29 L17.29,47.29 C16.9,47.68 16.9,48.31 17.29,48.7 C17.49,48.9 17.74,49 18,49 C18.26,49 18.51,48.9 18.71,48.71 L26.71,40.71 C27.1,40.32 27.1,39.69 26.71,39.3 C26.32,38.91 25.68,38.9 25.29,39.29 Z" id="Path"></path>
                </g>
            </g>
        </g>
    </g>
</svg>