<?xml version="1.0" encoding="UTF-8"?>
<svg width="60px" height="60px" viewBox="0 0 60 60" version="1.1" xmlns="http://www.w3.org/2000/svg" xmlns:xlink="http://www.w3.org/1999/xlink">
    <title>ic-support</title>
    <g id="Page-1" stroke="none" stroke-width="1" fill="none" fill-rule="evenodd">
        <g id="Acquisitions" transform="translate(-815.000000, -873.000000)" fill="#109FDA" fill-rule="nonzero">
            <g id="Group" transform="translate(815.000000, 873.000000)">
                <path d="M29,20 L29,19.828 C29,18.6558952 29.3528127,17.5207488 30,16.5637561 C30.6471873,17.5207488 31,18.6558952 31,19.828 L31,20 L29,20 Z M32,22 C32.5522847,22 33,21.5522847 33,21 L33,19.828 C33,17.7516559 32.1755529,15.7613394 30.7071068,14.2928932 C30.3165825,13.9023689 29.6834175,13.9023689 29.2928932,14.2928932 C27.8244471,15.7613394 27,17.7516559 27,19.828 L27,21 C27,21.5522847 27.4477153,22 28,22 L32,22 Z" id="Shape"></path>
                <path d="M29,21 L29,24 C29,24.5522847 29.4477153,25 30,25 C30.5522847,25 31,24.5522847 31,24 L31,21 C31,20.4477153 30.5522847,20 30,20 C29.4477153,20 29,20.4477153 29,21 Z" id="Path"></path>
                <path d="M30,31 C32.2092847,31 34,29.2092847 34,27 C34,24.7907153 32.2092847,23 30,23 C29.4477153,23 29,23.4477153 29,24 C29,24.5522847 29.4477153,25 30,25 C31.1047153,25 32,25.8952847 32,27 C32,28.1047153 31.1047153,29 30,29 C29.4477153,29 29,29.4477153 29,30 C29,30.5522847 29.4477153,31 30,31 Z" id="Path"></path>
                <path d="M21,47 L39,47 C39.5522847,47 40,46.5522847 40,46 L40,38 C40,37.4477153 39.5522847,37 39,37 L21,37 C20.4477153,37 20,37.4477153 20,38 L20,46 C20,46.5522847 20.4477153,47 21,47 Z M22,39 L38,39 L38,45 L22,45 L22,39 Z" id="Shape"></path>
                <path d="M26,37 L30,31.6666667 L34,37 L26,37 Z M36,39 C36.8240453,39 37.2944272,38.0592363 36.8,37.4 L30.8,29.4 C30.4,28.8666667 29.6,28.8666667 29.2,29.4 L23.2,37.4 C22.7055728,38.0592363 23.1759547,39 24,39 L36,39 Z" id="Shape"></path>
                <path d="M6,58 L6,2.326 C6,2.14628475 6.14628475,2 6.326,2 L9.674,2 C9.85371525,2 10,2.14628475 10,2.326 L10,58 L6,58 Z M4,60 L12,60 L12,2.326 C12,1.04171525 10.9582847,0 9.674,0 L6.326,0 C5.04171525,0 4,1.04171525 4,2.326 L4,60 Z" id="Shape"></path>
                <path d="M48,60 L56,60 L56,2.326 C56,1.04171525 54.9582847,0 53.674,0 L50.326,0 C49.0417153,0 48,1.04171525 48,2.326 L48,60 Z M50,2.326 C50,2.14628475 50.1462847,2 50.326,2 L53.674,2 C53.8537153,2 54,2.14628475 54,2.326 L54,58 L50,58 L50,2.326 Z" id="Shape"></path>
                <path d="M49,5 L11,5 C10.4477153,5 10,5.44771525 10,6 L10,11 C10,11.5522847 10.4477153,12 11,12 L49,12 C49.5522847,12 50,11.5522847 50,11 L50,6 C50,5.44771525 49.5522847,5 49,5 Z M48,10 L12,10 L12,7 L48,7 L48,10 Z" id="Shape"></path>
                <path d="M55,12 L59,12 C59.5522847,12 60,11.5522847 60,11 L60,6 C60,5.44771525 59.5522847,5 59,5 L55,5 C54.4477153,5 54,5.44771525 54,6 L54,11 C54,11.5522847 54.4477153,12 55,12 Z M56,7 L58,7 L58,10 L56,10 L56,7 Z" id="Shape"></path>
                <path d="M1,12 L5,12 C5.55228475,12 6,11.5522847 6,11 L6,6 C6,5.44771525 5.55228475,5 5,5 L1,5 C0.44771525,5 0,5.44771525 0,6 L0,11 C0,11.5522847 0.44771525,12 1,12 Z M2,7 L4,7 L4,10 L2,10 L2,7 Z" id="Shape"></path>
                <path d="M5,49 L11,49 C11.5522847,49 12,48.5522847 12,48 C12,47.4477153 11.5522847,47 11,47 L5,47 C4.44771525,47 4,47.4477153 4,48 C4,48.5522847 4.44771525,49 5,49 Z" id="Path"></path>
                <path d="M49,49 L55,49 C55.5522847,49 56,48.5522847 56,48 C56,47.4477153 55.5522847,47 55,47 L49,47 C48.4477153,47 48,47.4477153 48,48 C48,48.5522847 48.4477153,49 49,49 Z" id="Path"></path>
                <path d="M11,16 L49,16 C49.5522847,16 50,15.5522847 50,15 L50,11 C50,10.4477153 49.5522847,10 49,10 L11,10 C10.4477153,10 10,10.4477153 10,11 L10,15 C10,15.5522847 10.4477153,16 11,16 Z M12,12 L48,12 L48,14 L12,14 L12,12 Z" id="Shape"></path>
            </g>
        </g>
    </g>
</svg>