<?xml version="1.0" standalone="no"?>
<!DOCTYPE svg PUBLIC "-//W3C//DTD SVG 20010904//EN"
 "http://www.w3.org/TR/2001/REC-SVG-20010904/DTD/svg10.dtd">
<svg version="1.0" xmlns="http://www.w3.org/2000/svg"
 width="2000.000000pt" height="2000.000000pt" viewBox="0 0 2000.000000 2000.000000"
 preserveAspectRatio="xMidYMid meet">
<metadata>
Created by potrace 1.14, written by Peter Selinger 2001-2017
</metadata>
<g transform="translate(0.000000,2000.000000) scale(0.100000,-0.100000)"
fill="#000000" stroke="none">
<path d="M2585 17517 c-17 -7 -165 -93 -330 -192 -165 -99 -303 -181 -307
-183 -4 -2 -80 -48 -170 -102 -90 -55 -207 -125 -262 -157 -54 -32 -110 -66
-125 -75 -14 -9 -37 -23 -51 -31 -14 -8 -151 -89 -305 -182 -154 -92 -293
-175 -310 -185 -260 -151 -646 -391 -668 -414 -15 -17 -33 -42 -39 -56 -15
-38 -14 -11854 2 -11895 18 -48 47 -72 190 -157 74 -44 151 -91 170 -103 74
-48 2157 -1293 2185 -1307 52 -25 104 -22 165 10 30 16 199 116 375 222 176
106 329 198 340 204 11 6 80 47 153 91 73 44 146 88 162 97 32 19 294 176 321
193 9 5 34 20 55 32 22 13 56 33 76 45 120 74 254 154 263 157 5 2 17 9 25 16
8 7 35 24 60 37 93 52 636 381 654 397 10 9 27 34 37 56 18 38 19 125 19 2180
l0 2140 63 -65 c34 -36 109 -116 167 -178 58 -63 119 -128 135 -146 17 -18 75
-81 130 -141 55 -59 111 -120 125 -135 14 -14 74 -80 135 -146 60 -65 126
-135 145 -156 19 -20 71 -75 115 -124 44 -48 91 -99 105 -114 14 -15 70 -75
125 -135 55 -59 114 -122 130 -140 17 -17 71 -76 120 -130 50 -54 97 -106 106
-114 13 -14 176 -190 320 -346 25 -27 78 -84 118 -127 40 -42 80 -85 89 -96
10 -11 60 -66 112 -122 52 -56 110 -118 129 -139 18 -20 61 -66 95 -102 67
-71 87 -94 286 -309 73 -80 153 -165 176 -190 24 -25 57 -61 74 -80 27 -29
124 -134 263 -285 114 -123 135 -140 273 -222 10 -6 100 -60 199 -120 98 -59
202 -121 230 -136 27 -16 57 -35 65 -42 8 -8 26 -18 40 -24 14 -6 37 -19 52
-29 48 -30 390 -236 438 -263 25 -14 61 -36 80 -47 25 -16 51 -22 90 -22 47 0
64 6 109 35 29 19 54 35 57 35 2 0 73 43 159 95 85 52 174 105 198 119 23 13
119 70 212 126 94 57 179 108 190 114 11 6 109 65 217 130 223 134 188 102
553 501 15 17 57 62 94 100 36 39 111 119 166 179 123 133 153 166 219 236 28
31 101 109 161 175 61 65 121 131 135 146 14 15 66 71 115 125 50 53 122 131
161 173 39 42 83 90 98 106 15 17 74 80 130 140 56 61 124 134 152 164 27 30
65 71 84 91 19 20 73 79 120 130 47 51 92 100 101 109 15 16 246 265 324 350
22 24 51 55 65 70 28 29 218 234 265 285 17 18 73 79 125 136 52 57 110 119
129 139 18 20 74 80 125 135 50 54 107 116 126 136 19 20 59 63 88 94 l52 57
1 -43 c0 -24 0 -988 0 -2143 l0 -2100 21 -43 c20 -43 31 -51 174 -139 65 -40
161 -98 178 -107 12 -6 39 -23 61 -37 22 -14 60 -37 85 -51 25 -14 70 -41 101
-61 30 -19 72 -45 92 -56 20 -11 278 -165 574 -343 296 -177 547 -328 558
-334 11 -6 174 -104 362 -217 188 -113 357 -210 375 -216 28 -9 97 -8 117 3 3
1 133 79 289 172 155 93 295 176 310 185 15 9 227 136 472 284 245 147 460
276 478 286 18 11 45 27 59 36 13 9 37 24 53 32 33 19 448 268 488 293 15 10
34 21 42 25 46 24 298 179 317 196 12 11 29 35 39 55 15 33 16 441 16 5952 0
3254 -3 5928 -7 5941 -20 65 -80 110 -344 265 -20 12 -139 83 -266 159 -126
76 -243 146 -260 155 -16 9 -78 47 -137 84 -59 36 -110 66 -113 66 -3 0 -18 9
-33 19 -15 10 -340 206 -722 435 -693 415 -696 416 -751 416 -55 0 -59 -2
-620 -340 -310 -187 -607 -364 -659 -395 -52 -31 -360 -215 -683 -410 -478
-288 -598 -364 -640 -408 -83 -87 -360 -377 -417 -437 -28 -30 -124 -131 -213
-224 -239 -249 -514 -538 -607 -636 -25 -26 -117 -123 -205 -215 -88 -92 -180
-188 -204 -214 -24 -25 -116 -122 -205 -215 -88 -92 -185 -194 -214 -225 -30
-31 -126 -131 -213 -222 -88 -92 -178 -186 -200 -210 -23 -24 -110 -116 -194
-204 -84 -88 -177 -185 -206 -216 -30 -31 -122 -128 -206 -215 -83 -88 -166
-175 -185 -194 -18 -20 -87 -92 -153 -161 -152 -159 -435 -455 -499 -522 -87
-93 -350 -369 -406 -427 -251 -262 -406 -424 -415 -436 -9 -13 -13 -12 -30 4
-19 18 -300 312 -385 402 -23 25 -118 124 -210 220 -92 96 -187 195 -210 220
-23 25 -115 121 -204 214 -88 92 -177 185 -196 205 -19 20 -118 124 -220 231
-102 107 -229 239 -282 295 -53 55 -118 123 -145 151 -56 60 -328 346 -421
443 -101 105 -358 373 -410 428 -26 28 -119 126 -207 218 -88 92 -180 188
-204 214 -24 25 -121 127 -216 226 -95 99 -194 203 -221 232 -27 28 -119 124
-204 213 -85 90 -175 183 -199 209 -24 25 -119 125 -211 221 -92 96 -191 200
-220 230 -244 257 -370 389 -397 416 -25 24 -700 438 -964 591 -20 12 -74 45
-119 72 -45 28 -84 51 -87 51 -2 0 -28 15 -56 34 -29 18 -133 81 -232 140 -99
59 -377 226 -618 371 -240 144 -451 265 -468 269 -42 8 -58 7 -94 -7z m306
-524 c134 -80 258 -154 274 -163 30 -18 287 -172 315 -189 32 -20 541 -327
567 -342 16 -9 177 -105 358 -214 363 -218 609 -387 698 -480 65 -67 337 -351
407 -425 25 -26 115 -121 200 -210 85 -90 171 -180 190 -200 19 -20 108 -113
197 -206 88 -93 183 -192 210 -221 64 -68 349 -367 484 -508 58 -60 143 -150
190 -199 46 -49 107 -112 134 -141 87 -90 368 -385 418 -439 27 -28 83 -87
125 -131 43 -44 151 -158 242 -254 91 -95 190 -199 220 -230 30 -32 120 -127
200 -211 80 -84 170 -178 200 -210 30 -31 96 -99 145 -151 50 -52 163 -171
252 -265 88 -93 183 -192 210 -220 26 -28 118 -125 203 -214 85 -89 177 -186
203 -214 27 -28 117 -122 200 -210 84 -87 178 -186 210 -220 l57 -61 0 -1577
c0 -868 -2 -1578 -4 -1578 -2 0 -1598 1594 -3547 3541 -3493 3490 -3711 3705
-3860 3794 -27 17 -267 161 -532 320 -265 160 -490 295 -500 300 -9 6 -80 48
-157 95 -77 47 -148 90 -157 95 -18 10 -303 181 -334 200 -9 6 -34 20 -55 32
-22 13 -56 33 -76 45 -21 13 -82 50 -138 83 -55 33 -100 62 -100 65 0 3 249
154 552 335 303 182 774 464 1047 627 273 164 499 298 502 298 3 0 116 -66
250 -147z m16744 -7104 l0 -5672 -25 -18 c-25 -17 -1213 -730 -1260 -756 -14
-8 -200 -119 -414 -248 -214 -130 -391 -233 -394 -230 -3 2 -4 1462 -2 3242 3
4700 3 5275 -5 5309 -9 40 -59 102 -94 116 -35 15 -109 18 -142 6 -16 -5 -43
-24 -61 -42 -32 -31 -227 -238 -324 -345 -27 -29 -65 -70 -84 -91 -19 -20 -80
-86 -135 -145 -55 -59 -113 -122 -130 -140 -16 -17 -73 -78 -125 -135 -52 -56
-102 -110 -111 -119 -8 -9 -46 -50 -85 -91 -38 -42 -119 -129 -181 -195 -61
-66 -121 -131 -133 -145 -12 -14 -52 -57 -88 -95 -57 -60 -203 -217 -308 -331
-25 -27 -151 -163 -249 -269 -76 -82 -266 -286 -321 -345 -60 -65 -132 -143
-274 -299 -41 -46 -88 -98 -105 -116 -16 -18 -57 -62 -90 -97 -33 -35 -103
-111 -155 -167 -123 -134 -145 -158 -266 -287 -56 -60 -113 -122 -128 -139
-29 -32 -181 -196 -231 -249 -40 -43 -216 -233 -251 -271 -15 -16 -69 -75
-120 -130 -51 -55 -105 -113 -120 -130 -15 -16 -70 -77 -123 -133 -53 -57
-109 -118 -126 -136 -16 -18 -75 -81 -130 -141 -55 -59 -113 -122 -128 -139
-16 -17 -75 -80 -132 -141 -56 -60 -124 -134 -151 -164 -27 -30 -62 -68 -79
-86 -16 -17 -77 -82 -135 -145 -58 -63 -112 -121 -120 -130 -42 -45 -252 -272
-300 -324 -30 -33 -66 -72 -80 -87 -34 -36 -125 -134 -245 -264 -334 -363
-366 -395 -429 -431 -75 -43 -89 -52 -143 -86 -23 -16 -45 -28 -48 -28 -4 0
-38 -20 -76 -45 -38 -25 -71 -45 -73 -45 -1 0 -160 -94 -352 -209 l-349 -210
-3 1240 -2 1241 3731 3731 3732 3732 1076 647 c592 355 1081 647 1086 647 7 1
10 -1894 10 -5670z m-16666 953 c53 -57 119 -128 146 -157 28 -29 82 -89 121
-132 93 -101 108 -117 230 -248 56 -60 116 -126 134 -145 18 -19 82 -89 144
-155 61 -66 134 -144 161 -174 28 -30 64 -69 80 -86 17 -18 73 -79 125 -135
52 -57 110 -119 129 -139 18 -20 72 -78 120 -130 47 -51 102 -111 121 -131
178 -191 260 -280 387 -419 32 -35 43 -54 43 -81 1 -40 1 -4366 1 -4450 l-1
-56 -67 -39 c-37 -22 -71 -42 -77 -44 -6 -2 -15 -8 -21 -13 -8 -8 -316 -193
-410 -248 -16 -9 -352 -210 -745 -446 -791 -474 -761 -457 -769 -449 -3 3 -6
1815 -7 4027 l-3 4021 31 -34 c17 -19 74 -81 127 -137z"/>
</g>
</svg>
