<?xml version="1.0" encoding="UTF-8"?>
<svg width="60px" height="60px" viewBox="0 0 60 60" version="1.1" xmlns="http://www.w3.org/2000/svg" xmlns:xlink="http://www.w3.org/1999/xlink">
    <title>ic-autonomy</title>
    <g id="Page-1" stroke="none" stroke-width="1" fill="none" fill-rule="evenodd">
        <g id="Acquisitions" transform="translate(-343.000000, -905.000000)" fill="#109FDA" fill-rule="nonzero">
            <g id="Group" transform="translate(343.000000, 905.000000)">
                <path d="M57,17 L45,17 C43.3431458,17 42,18.3431458 42,20 L42,21 L39,21 L39,20 C39,18.3431458 37.6568542,17 36,17 L31,17 L31,10 L36,10 C37.6568542,10 39,8.65685425 39,7 L39,3 C39,1.34314575 37.6568542,0 36,0 L24,0 C22.3431458,0 21,1.34314575 21,3 L21,7 C21,8.65685425 22.3431458,10 24,10 L29,10 L29,17 L24,17 C22.3431458,17 21,18.3431458 21,20 L21,21 L18,21 L18,20 C18,18.3431458 16.6568542,17 15,17 L3,17 C1.34314575,17 0,18.3431458 0,20 L0,24 C0,25.6568542 1.34314575,27 3,27 L15,27 C16.6568542,27 18,25.6568542 18,24 L18,23 L21,23 L21,24 C21,25.6568542 22.3431458,27 24,27 L29,27 L29,29 L21,29 C19.8954305,29 19,29.8954305 19,31 L19,33 L14,33 C12.3431458,33 11,34.3431458 11,36 L11,40 C11,41.6568542 12.3431458,43 14,43 L19,43 L19,45 L10,45 C8.8954305,45 8,45.8954305 8,47 L8,50 L3,50 C1.34314575,50 0,51.3431458 0,53 L0,57 C0,58.6568542 1.34314575,60 3,60 L15,60 C16.6568542,60 18,58.6568542 18,57 L18,53 C18,51.3431458 16.6568542,50 15,50 L10,50 L10,47 L29,47 L29,50 L24,50 C22.3431458,50 21,51.3431458 21,53 L21,57 C21,58.6568542 22.3431458,60 24,60 L36,60 C37.6568542,60 39,58.6568542 39,57 L39,53 C39,51.3431458 37.6568542,50 36,50 L31,50 L31,47 L51,47 L51,50 L45,50 C43.3431458,50 42,51.3431458 42,53 L42,57 C42,58.6568542 43.3431458,60 45,60 L57,60 C58.6568542,60 60,58.6568542 60,57 L60,53 C60,51.3431458 58.6568542,50 57,50 L53,50 L53,47 C53,45.8954305 52.1045695,45 51,45 L42,45 L42,43 L46,43 C47.6568542,43 49,41.6568542 49,40 L49,36 C49,34.3431458 47.6568542,33 46,33 L41,33 L41,31 C41,29.8954305 40.1045695,29 39,29 L31,29 L31,27 L36,27 C37.6568542,27 39,25.6568542 39,24 L39,23 L42,23 L42,24 C42,25.6568542 43.3431458,27 45,27 L57,27 C58.6568542,27 60,25.6568542 60,24 L60,20 C60,18.3431458 58.6568542,17 57,17 Z M37,3 L37,7 C37,7.55228475 36.5522847,8 36,8 L28,8 L28,2 L36,2 C36.5522847,2 37,2.44771525 37,3 Z M23,7 L23,3 C23,2.44771525 23.4477153,2 24,2 L26,2 L26,8 L24,8 C23.4477153,8 23,7.55228475 23,7 Z M2,24 L2,20 C2,19.4477153 2.44771525,19 3,19 L5,19 L5,25 L3,25 C2.44771525,25 2,24.5522847 2,24 Z M16,24 C16,24.5522847 15.5522847,25 15,25 L7,25 L7,19 L15,19 C15.5522847,19 16,19.4477153 16,20 L16,24 Z M2,57 L2,53 C2,52.4477153 2.44771525,52 3,52 L5,52 L5,58 L3,58 C2.44771525,58 2,57.5522847 2,57 Z M16,53 L16,57 C16,57.5522847 15.5522847,58 15,58 L7,58 L7,52 L15,52 C15.5522847,52 16,52.4477153 16,53 Z M23,57 L23,53 C23,52.4477153 23.4477153,52 24,52 L26,52 L26,58 L24,58 C23.4477153,58 23,57.5522847 23,57 Z M37,53 L37,57 C37,57.5522847 36.5522847,58 36,58 L28,58 L28,52 L36,52 C36.5522847,52 37,52.4477153 37,53 Z M44,57 L44,53 C44,52.4477153 44.4477153,52 45,52 L47,52 L47,58 L45,58 C44.4477153,58 44,57.5522847 44,57 Z M58,53 L58,57 C58,57.5522847 57.5522847,58 57,58 L49,58 L49,52 L57,52 C57.5522847,52 58,52.4477153 58,53 Z M18,41 L18,35 L26,35 C26.5522847,35 27,35.4477153 27,36 L27,40 C27,40.5522847 26.5522847,41 26,41 L18,41 Z M13,40 L13,36 C13,35.4477153 13.4477153,35 14,35 L16,35 L16,41 L14,41 C13.4477153,41 13,40.5522847 13,40 Z M47,36 L47,40 C47,40.5522847 46.5522847,41 46,41 L38,41 L38,35 L46,35 C46.5522847,35 47,35.4477153 47,36 Z M34,41 C33.4477153,41 33,40.5522847 33,40 L33,36 C33,35.4477153 33.4477153,35 34,35 L36,35 L36,41 L34,41 Z M39,33 L34,33 C32.3431458,33 31,34.3431458 31,36 L31,40 C31,41.6568542 32.3431458,43 34,43 L40,43 L40,45 L21,45 L21,43 L26,43 C27.6568542,43 29,41.6568542 29,40 L29,36 C29,34.3431458 27.6568542,33 26,33 L21,33 L21,31 L39,31 L39,33 Z M23,24 L23,20 C23,19.4477153 23.4477153,19 24,19 L26,19 L26,25 L24,25 C23.4477153,25 23,24.5522847 23,24 Z M37,24 C37,24.5522847 36.5522847,25 36,25 L28,25 L28,19 L36,19 C36.5522847,19 37,19.4477153 37,20 L37,24 Z M44,24 L44,20 C44,19.4477153 44.4477153,19 45,19 L47,19 L47,25 L45,25 C44.4477153,25 44,24.5522847 44,24 Z M58,24 C58,24.5522847 57.5522847,25 57,25 L49,25 L49,19 L57,19 C57.5522847,19 58,19.4477153 58,20 L58,24 Z" id="Shape"></path>
                <path d="M31,6 L34,6 C34.5522847,6 35,5.55228475 35,5 C35,4.44771525 34.5522847,4 34,4 L31,4 C30.4477153,4 30,4.44771525 30,5 C30,5.55228475 30.4477153,6 31,6 Z" id="Path"></path>
                <path d="M34,21 L31,21 C30.4477153,21 30,21.4477153 30,22 C30,22.5522847 30.4477153,23 31,23 L34,23 C34.5522847,23 35,22.5522847 35,22 C35,21.4477153 34.5522847,21 34,21 Z" id="Path"></path>
                <path d="M24,37 L21,37 C20.4477153,37 20,37.4477153 20,38 C20,38.5522847 20.4477153,39 21,39 L24,39 C24.5522847,39 25,38.5522847 25,38 C25,37.4477153 24.5522847,37 24,37 Z" id="Path"></path>
                <path d="M41,39 L44,39 C44.5522847,39 45,38.5522847 45,38 C45,37.4477153 44.5522847,37 44,37 L41,37 C40.4477153,37 40,37.4477153 40,38 C40,38.5522847 40.4477153,39 41,39 Z" id="Path"></path>
                <path d="M13,21 L10,21 C9.44771525,21 9,21.4477153 9,22 C9,22.5522847 9.44771525,23 10,23 L13,23 C13.5522847,23 14,22.5522847 14,22 C14,21.4477153 13.5522847,21 13,21 Z" id="Path"></path>
                <path d="M55,21 L52,21 C51.4477153,21 51,21.4477153 51,22 C51,22.5522847 51.4477153,23 52,23 L55,23 C55.5522847,23 56,22.5522847 56,22 C56,21.4477153 55.5522847,21 55,21 Z" id="Path"></path>
                <path d="M10,56 L13,56 C13.5522847,56 14,55.5522847 14,55 C14,54.4477153 13.5522847,54 13,54 L10,54 C9.44771525,54 9,54.4477153 9,55 C9,55.5522847 9.44771525,56 10,56 Z" id="Path"></path>
                <path d="M31,56 L34,56 C34.5522847,56 35,55.5522847 35,55 C35,54.4477153 34.5522847,54 34,54 L31,54 C30.4477153,54 30,54.4477153 30,55 C30,55.5522847 30.4477153,56 31,56 Z" id="Path"></path>
                <path d="M51,55 C51,55.5522847 51.4477153,56 52,56 L55,56 C55.5522847,56 56,55.5522847 56,55 C56,54.4477153 55.5522847,54 55,54 L52,54 C51.4477153,54 51,54.4477153 51,55 Z" id="Path"></path>
            </g>
        </g>
    </g>
</svg>