<?xml version="1.0" encoding="UTF-8"?>
<svg width="46px" height="60px" viewBox="0 0 46 60" version="1.1" xmlns="http://www.w3.org/2000/svg" xmlns:xlink="http://www.w3.org/1999/xlink">
    <title>ic-datacenters</title>
    <g id="Page-1" stroke="none" stroke-width="1" fill="none" fill-rule="evenodd">
        <g id="Desktop-HD" transform="translate(-807.000000, -1857.000000)">
            <g id="Group-15" transform="translate(125.000000, 1654.000000)">
                <g id="Group-9-Copy-3" transform="translate(646.000000, 184.000000)">
                    <g id="ic-datacenters" transform="translate(37.000000, 20.000000)">
                        <path d="M0,46 L22,46 L22,54 L1,54 C0.44771525,54 0,53.5522847 0,53 L0,46 Z" id="Path" stroke="#109FDA" stroke-width="2" stroke-linecap="round" stroke-linejoin="round"></path>
                        <line x1="4" y1="50" x2="4" y2="50" id="Path" stroke="#109FDA" stroke-width="2" stroke-linecap="round" stroke-linejoin="round"></line>
                        <line x1="8" y1="50" x2="8" y2="50" id="Path" stroke="#109FDA" stroke-width="2" stroke-linecap="round" stroke-linejoin="round"></line>
                        <line x1="12" y1="50" x2="18" y2="50" id="Path" stroke="#109FDA" stroke-width="2" stroke-linecap="round" stroke-linejoin="round"></line>
                        <rect id="Rectangle" x="0" y="38" width="22" height="8"></rect>
                        <rect id="Rectangle" stroke="#109FDA" stroke-width="2" stroke-linecap="round" stroke-linejoin="round" x="0" y="38" width="22" height="8"></rect>
                        <line x1="4" y1="42" x2="4" y2="42" id="Path" stroke="#109FDA" stroke-width="2" stroke-linecap="round" stroke-linejoin="round"></line>
                        <line x1="8" y1="42" x2="8" y2="42" id="Path" stroke="#109FDA" stroke-width="2" stroke-linecap="round" stroke-linejoin="round"></line>
                        <line x1="12" y1="42" x2="18" y2="42" id="Path" stroke="#109FDA" stroke-width="2" stroke-linecap="round" stroke-linejoin="round"></line>
                        <rect id="Rectangle" x="0" y="30" width="22" height="8"></rect>
                        <rect id="Rectangle" stroke="#109FDA" stroke-width="2" stroke-linecap="round" stroke-linejoin="round" x="0" y="30" width="22" height="8"></rect>
                        <line x1="4" y1="34" x2="4" y2="34" id="Path" stroke="#109FDA" stroke-width="2" stroke-linecap="round" stroke-linejoin="round"></line>
                        <line x1="8" y1="34" x2="8" y2="34" id="Path" stroke="#109FDA" stroke-width="2" stroke-linecap="round" stroke-linejoin="round"></line>
                        <line x1="12" y1="34" x2="18" y2="34" id="Path" stroke="#109FDA" stroke-width="2" stroke-linecap="round" stroke-linejoin="round"></line>
                        <rect id="Rectangle" x="0" y="22" width="22" height="8"></rect>
                        <rect id="Rectangle" stroke="#109FDA" stroke-width="2" stroke-linecap="round" stroke-linejoin="round" x="0" y="22" width="22" height="8"></rect>
                        <line x1="4" y1="26" x2="4" y2="26" id="Path" stroke="#109FDA" stroke-width="2" stroke-linecap="round" stroke-linejoin="round"></line>
                        <line x1="8" y1="26" x2="8" y2="26" id="Path" stroke="#109FDA" stroke-width="2" stroke-linecap="round" stroke-linejoin="round"></line>
                        <line x1="12" y1="26" x2="18" y2="26" id="Path" stroke="#109FDA" stroke-width="2" stroke-linecap="round" stroke-linejoin="round"></line>
                        <rect id="Rectangle" x="0" y="14" width="22" height="8"></rect>
                        <rect id="Rectangle" stroke="#109FDA" stroke-width="2" stroke-linecap="round" stroke-linejoin="round" x="0" y="14" width="22" height="8"></rect>
                        <line x1="4" y1="18" x2="4" y2="18" id="Path" stroke="#109FDA" stroke-width="2" stroke-linecap="round" stroke-linejoin="round"></line>
                        <line x1="8" y1="18" x2="8" y2="18" id="Path" stroke="#109FDA" stroke-width="2" stroke-linecap="round" stroke-linejoin="round"></line>
                        <line x1="12" y1="18" x2="18" y2="18" id="Path" stroke="#109FDA" stroke-width="2" stroke-linecap="round" stroke-linejoin="round"></line>
                        <rect id="Rectangle" x="0" y="6" width="22" height="8"></rect>
                        <rect id="Rectangle" stroke="#109FDA" stroke-width="2" stroke-linecap="round" stroke-linejoin="round" x="0" y="6" width="22" height="8"></rect>
                        <line x1="4" y1="10" x2="4" y2="10" id="Path" stroke="#109FDA" stroke-width="2" stroke-linecap="round" stroke-linejoin="round"></line>
                        <line x1="8" y1="10" x2="8" y2="10" id="Path" stroke="#109FDA" stroke-width="2" stroke-linecap="round" stroke-linejoin="round"></line>
                        <line x1="12" y1="10" x2="18" y2="10" id="Path" stroke="#109FDA" stroke-width="2" stroke-linecap="round" stroke-linejoin="round"></line>
                        <path d="M23,46 L44,46 L44,54 L22,54 L22,47 C22,46.4477153 22.4477153,46 23,46 Z" id="Path" stroke="#109FDA" stroke-width="2" stroke-linecap="round" stroke-linejoin="round" transform="translate(33.000000, 50.000000) rotate(-180.000000) translate(-33.000000, -50.000000) "></path>
                        <line x1="40" y1="50" x2="40" y2="50" id="Path" stroke="#109FDA" stroke-width="2" stroke-linecap="round" stroke-linejoin="round"></line>
                        <line x1="36" y1="50" x2="36" y2="50" id="Path" stroke="#109FDA" stroke-width="2" stroke-linecap="round" stroke-linejoin="round"></line>
                        <line x1="32" y1="50" x2="26" y2="50" id="Path" stroke="#109FDA" stroke-width="2" stroke-linecap="round" stroke-linejoin="round"></line>
                        <rect id="Rectangle" transform="translate(33.000000, 42.000000) rotate(-180.000000) translate(-33.000000, -42.000000) " x="22" y="38" width="22" height="8"></rect>
                        <rect id="Rectangle" stroke="#109FDA" stroke-width="2" stroke-linecap="round" stroke-linejoin="round" transform="translate(33.000000, 42.000000) rotate(-180.000000) translate(-33.000000, -42.000000) " x="22" y="38" width="22" height="8"></rect>
                        <line x1="40" y1="42" x2="40" y2="42" id="Path" stroke="#109FDA" stroke-width="2" stroke-linecap="round" stroke-linejoin="round"></line>
                        <line x1="36" y1="42" x2="36" y2="42" id="Path" stroke="#109FDA" stroke-width="2" stroke-linecap="round" stroke-linejoin="round"></line>
                        <line x1="32" y1="42" x2="26" y2="42" id="Path" stroke="#109FDA" stroke-width="2" stroke-linecap="round" stroke-linejoin="round"></line>
                        <line x1="22" y1="22" x2="22" y2="30" id="Path"></line>
                        <rect id="Rectangle" transform="translate(33.000000, 10.000000) rotate(-180.000000) translate(-33.000000, -10.000000) " x="22" y="6" width="22" height="8"></rect>
                        <rect id="Rectangle" stroke="#109FDA" stroke-width="2" stroke-linecap="round" stroke-linejoin="round" transform="translate(33.000000, 10.000000) rotate(-180.000000) translate(-33.000000, -10.000000) " x="22" y="6" width="22" height="8"></rect>
                        <line x1="40" y1="10" x2="40" y2="10" id="Path" stroke="#109FDA" stroke-width="2" stroke-linecap="round" stroke-linejoin="round"></line>
                        <line x1="36" y1="10" x2="36" y2="10" id="Path" stroke="#109FDA" stroke-width="2" stroke-linecap="round" stroke-linejoin="round"></line>
                        <line x1="32" y1="10" x2="26" y2="10" id="Path" stroke="#109FDA" stroke-width="2" stroke-linecap="round" stroke-linejoin="round"></line>
                        <path d="M3,54 L41,54 L41,57 C41,57.5522847 40.5522847,58 40,58 L4,58 C3.44771525,58 3,57.5522847 3,57 L3,54 Z" id="Path" stroke="#109FDA" stroke-width="2" stroke-linecap="round" stroke-linejoin="round"></path>
                        <line x1="27" y1="22" x2="26" y2="23" id="Path" stroke="#109FDA" stroke-width="2" stroke-linecap="round" stroke-linejoin="round"></line>
                        <line x1="26" y1="28" x2="32" y2="22" id="Path" stroke="#109FDA" stroke-width="2" stroke-linecap="round" stroke-linejoin="round"></line>
                        <path d="M1,0 L43,0 C43.5522847,0 44,0.44771525 44,1 L44,6 L0,6 L0,1 C0,0.44771525 0.44771525,0 1,0 Z" id="Path" stroke="#109FDA" stroke-width="2" stroke-linecap="round" stroke-linejoin="round"></path>
                        <line x1="44" y1="14" x2="44" y2="38" id="Path" stroke="#109FDA" stroke-width="2" stroke-linecap="round" stroke-linejoin="round"></line>
                        <polyline id="Path" stroke="#109FDA" stroke-width="2" stroke-linecap="round" stroke-linejoin="round" points="22 18 40 18 40 34 22 34"></polyline>
                    </g>
                </g>
            </g>
        </g>
    </g>
</svg>