<?xml version="1.0" encoding="UTF-8"?>
<svg width="95px" height="95px" viewBox="0 0 95 95" version="1.1" xmlns="http://www.w3.org/2000/svg" xmlns:xlink="http://www.w3.org/1999/xlink">
    <title>ic-hvac-install</title>
    <g id="Page-1" stroke="none" stroke-width="1" fill="none" fill-rule="evenodd">
        <g id="Desktop-HD" transform="translate(-797.000000, -1176.000000)" fill-rule="nonzero">
            <g id="Group-21" transform="translate(0.000000, 40.000000)">
                <g id="Group-8" transform="translate(80.000000, 1090.000000)">
                    <g id="Group-2" transform="translate(655.000000, 0.000000)">
                        <g id="ic-hvac-install" transform="translate(62.000000, 46.000000)">
                            <path d="M50.3339016,1.42108547e-14 C52.9526557,1.42108547e-14 55.0819672,2.13088525 55.0819672,4.74806557 L55.0819672,5.08170492 C67.371541,8.5707541 75.5409836,19.0331803 75.5409836,31.4754098 L75.54,33.049 L77.1147541,33.0491803 C77.9834754,33.0491803 78.6885246,33.7526557 78.6885246,34.6229508 C78.6885246,35.4932459 77.9834754,36.1967213 77.1147541,36.1967213 L72.393,36.196 L72.3934426,42.4918033 C72.3934426,49.0318216 70.0815108,55.9306405 66.1666113,61.4517747 L67.6258623,67.2917508 C67.7376,67.743423 67.6447475,68.2202754 67.3709115,68.5979803 L66.6824461,69.5429071 C70.1112746,70.1266126 73.7732569,71.192104 77.8814909,72.8169202 L78.9634671,73.2535242 C80.7840994,74.0025139 82.6925922,74.8585108 84.7064599,75.8278875 L85.9275656,76.4231702 L87.174802,77.0459699 C87.594996,77.25819 88.0196852,77.4750473 88.4490097,77.6965927 L89.7510295,78.3753443 C92.634177,79.892459 94.4267016,82.8605902 94.4267016,86.1245902 L94.4267016,92.852459 C94.4267016,93.7227541 93.7216525,94.4262295 92.8529311,94.4262295 L54.4922754,94.4262295 C54.4267974,94.4262295 54.3621887,94.422218 54.2986954,94.4144163 L39.9344262,94.4262295 L1.57377049,94.4262295 C0.70504918,94.4262295 -1.42108547e-13,93.7227541 -1.42108547e-13,92.852459 L-1.42108547e-13,86.1245902 C-1.42108547e-13,82.8605902 1.79252459,79.892459 4.67567213,78.3753443 L5.97775872,77.6965581 C6.83645123,77.2534453 7.6766,76.829087 8.4993252,76.4230753 L9.72048532,75.8277667 C16.7693248,72.4348046 22.5270524,70.4308882 27.7440844,69.542737 L27.0554754,68.5975082 C26.7816393,68.221377 26.6887869,67.7429508 26.8005246,67.2912787 L28.2603282,61.4527761 C24.3449983,55.9314746 22.0327869,49.032217 22.0327869,42.4918033 L22.032,36.196 L17.3114754,36.1967213 C16.4427541,36.1967213 15.7377049,35.4932459 15.7377049,34.6229508 C15.7377049,33.7526557 16.4427541,33.0491803 17.3114754,33.0491803 L18.885,33.049 L18.8852459,31.4754098 C18.8852459,19.0331803 27.0546885,8.5707541 39.3442623,5.08170492 L39.3442623,4.74806557 C39.3442623,2.13088525 41.4735738,1.42108547e-14 44.0923279,1.42108547e-14 L50.3339016,1.42108547e-14 Z M52.2189639,86.557377 L42.2082098,86.557377 L41.2639475,91.2771148 L53.1616525,91.2660984 L52.2189639,86.557377 Z M47.2124852,74.6942951 L43.3394361,83.4098361 L51.086,83.409 L47.2124852,74.6942951 Z" id="Combined-Shape" fill-opacity="0.25" fill="#FCE013"></path>
                            <path d="M50.3339016,-4.61852778e-14 C52.9526557,-4.61852778e-14 55.0819672,2.13088525 55.0819672,4.74806557 L55.0819672,5.08170492 C67.371541,8.5707541 75.5409836,19.0331803 75.5409836,31.4754098 L75.54,33.049 L77.1147541,33.0491803 C77.9834754,33.0491803 78.6885246,33.7526557 78.6885246,34.6229508 C78.6885246,35.4932459 77.9834754,36.1967213 77.1147541,36.1967213 L72.393,36.196 L72.3934426,42.4918033 C72.3934426,49.0318216 70.0815108,55.9306405 66.1666113,61.4517747 L67.6258623,67.2917508 C67.7376,67.743423 67.6447475,68.2202754 67.3709115,68.5979803 L66.6824461,69.5429071 C73.0928646,70.6341826 80.3182196,73.4094318 89.7510295,78.3753443 C92.634177,79.892459 94.4267016,82.8605902 94.4267016,86.1245902 L94.4267016,92.852459 C94.4267016,93.7227541 93.7216525,94.4262295 92.8529311,94.4262295 L54.4922754,94.4262295 C54.4267974,94.4262295 54.3621887,94.422218 54.2986954,94.4144163 L39.9455547,94.426191 C39.9418482,94.4262167 39.9381387,94.4262295 39.9344262,94.4262295 L1.57377049,94.4262295 C0.70504918,94.4262295 -1.24344979e-13,93.7227541 -1.24344979e-13,92.852459 L-1.24344979e-13,86.1245902 C-1.24344979e-13,82.8605902 1.79252459,79.892459 4.67567213,78.3753443 C14.1089722,73.4091738 21.3345879,70.6338942 27.7440844,69.542737 L27.0554754,68.5975082 C26.7816393,68.221377 26.6887869,67.7429508 26.8005246,67.2912787 L28.2603282,61.4527761 C24.3449983,55.9314746 22.0327869,49.032217 22.0327869,42.4918033 L22.032,36.196 L17.3114754,36.1967213 C16.4427541,36.1967213 15.7377049,35.4932459 15.7377049,34.6229508 C15.7377049,33.7526557 16.4427541,33.0491803 17.3114754,33.0491803 L18.885,33.049 L18.8852459,31.4754098 C18.8852459,19.0331803 27.0546885,8.5707541 39.3442623,5.08170492 L39.3442623,4.74806557 C39.3442623,2.13088525 41.4735738,-4.61852778e-14 44.0923279,-4.61852778e-14 L50.3339016,-4.61852778e-14 Z M64.595882,72.4139016 L55.187882,85.3502951 L56.3745049,91.2786885 L91.2791607,91.2786885 L91.2791607,86.1245902 C91.2791607,84.0330492 90.131882,82.1319344 88.2842754,81.1593443 C78.3616525,75.9375738 71.0373246,73.2306885 64.595882,72.4139016 Z M29.8308197,72.4139016 C23.3878033,73.2306885 16.0650492,75.9375738 6.14242623,81.1593443 C4.29481967,82.1319344 3.14754098,84.0330492 3.14754098,86.1245902 L3.14754098,91.2786885 L38.0537705,91.2786885 L39.24,85.351 L31.947,75.324 L29.8308197,72.4139016 Z M52.2189639,86.557377 L42.2082098,86.557377 L41.2639475,91.2771148 L53.1616525,91.2660984 L52.2189639,86.557377 Z M47.2124852,74.6942951 L43.3394361,83.4098361 L51.086,83.409 L48.892,78.473 L47.2124852,74.6942951 Z M49.5716847,72.2512751 L53.8396328,81.8522754 L64.3933377,67.3405377 L63.6878832,64.5234854 C59.8813886,68.6668252 55.0344184,71.5895079 49.5716847,72.2512751 Z M30.737427,64.5224846 L30.0330492,67.3400656 L35.313,74.602 L40.586,81.852 L44.8540084,72.2512101 C39.391054,71.5892633 34.5439358,68.6662189 30.737427,64.5224846 Z M69.2459016,36.1967213 L25.1803279,36.1967213 L25.1803279,42.4918033 C25.1803279,49.4791028 27.6027182,55.6607962 31.2250739,60.3170092 C31.3559626,60.4067682 31.4727766,60.5158869 31.570623,60.6405246 C32.4043218,61.7070664 33.2829348,62.6814559 34.199205,63.5597295 C37.9960481,67.0647201 42.5357106,69.1421179 46.8847398,69.2421176 L46.8842998,69.2425542 L47.2131148,69.2459016 L47.2131148,69.2459016 C51.6612715,69.2459016 56.3345171,67.1530357 60.2267734,63.5597735 C61.1434521,62.6814394 62.0220651,61.7072362 62.8557639,60.6409967 C62.9536103,60.5163591 63.0704243,60.4072403 63.2004627,60.3168312 C66.8231655,55.6616786 69.2459016,49.4796016 69.2459016,42.4918033 L69.2459016,36.1967213 Z M50.3339016,3.14754098 L44.0923279,3.14754098 C43.2094426,3.14754098 42.4918033,3.86518033 42.4918033,4.74806557 L42.4918033,12.5901639 C42.4918033,13.460459 41.7867541,14.1639344 40.9180328,14.1639344 C40.0493115,14.1639344 39.3442623,13.460459 39.3442623,12.5901639 L39.3440205,8.36905252 C38.066745,8.7772292 36.8427947,9.27118967 35.6782513,9.84345993 L37.7399607,20.1502426 C37.8438295,20.6664393 37.6817311,21.1999475 37.3087475,21.5713574 C37.0113049,21.8703738 36.6099934,22.0324721 36.1960918,22.0324721 C36.0937967,22.0324721 35.9915016,22.0214557 35.8876328,22.0025705 L25.0330941,19.8311997 C23.1005404,23.290082 22.0327869,27.2546242 22.0327869,31.4754098 L22.0327869,33.0491803 L72.3934426,33.0491803 L72.3934426,31.4754098 C72.3934426,27.2550302 71.3258945,23.2908448 69.3936931,19.8321979 L58.5392262,22.0016262 C58.4353574,22.0220852 58.3330623,22.0331016 58.2291934,22.0331016 C57.8168656,22.0331016 57.4155541,21.8694295 57.1165377,21.5719869 C56.7451279,21.1990033 56.5830295,20.6670689 56.6868984,20.1492984 L58.7489813,9.84395292 C57.5838327,9.27132344 56.3592101,8.77708762 55.0812053,8.36873179 L55.0819672,12.5901639 C55.0819672,13.460459 54.376918,14.1639344 53.5081967,14.1639344 C52.6394754,14.1639344 51.9344262,13.460459 51.9344262,12.5901639 L51.9344262,4.74806557 C51.9344262,3.86518033 51.2167869,3.14754098 50.3339016,3.14754098 Z M32.8046164,11.5228328 C30.530518,13.0336525 28.5365508,14.8875541 26.9108459,16.9979803 L34.1895344,18.453718 L32.8046164,11.5228328 Z M61.6222426,11.5234623 L60.2357508,18.4527738 L67.5160131,16.9986098 C65.8903082,14.8881836 63.896341,13.034282 61.6222426,11.5234623 Z" id="Combined-Shape" fill="#CC3538"></path>
                        </g>
                    </g>
                </g>
            </g>
        </g>
    </g>
</svg>