<?xml version="1.0" encoding="UTF-8"?>
<svg width="60px" height="56px" viewBox="0 0 60 56" version="1.1" xmlns="http://www.w3.org/2000/svg" xmlns:xlink="http://www.w3.org/1999/xlink">
    <title>ic-healthcare-labs</title>
    <g id="Page-1" stroke="none" stroke-width="1" fill="none" fill-rule="evenodd">
        <g id="Desktop-HD" transform="translate(-1236.000000, -1858.000000)" fill="#109FDA" fill-rule="nonzero">
            <g id="Group-15" transform="translate(125.000000, 1654.000000)">
                <g id="Group-9-Copy" transform="translate(1083.000000, 184.000000)">
                    <g id="ic-healthcare-labs" transform="translate(28.000000, 20.000000)">
                        <path d="M56,54 L36.414,54 L34.707,52.293 C34.52,52.105 34.265,52 34,52 L27,52 C26.735,52 26.48,52.105 26.293,52.293 L24.586,54 L4,54 C2.897,54 2,53.103 2,52 C2,50.897 2.897,50 4,50 L50,50 L56,50 C57.103,50 58,50.897 58,52 C58,53.103 57.103,54 56,54 L56,54 Z M51,48 L55,48 L55,20 L51,20 L51,48 Z M42,16 L48,16 L48,14 L42,14 L42,16 Z M40,18 L38,18 L38,12 L40,12 L40,13 L40,17 L40,18 Z M37,31 L29,31 L29,20 C29.552,20 30,19.553 30,19 L30,11 C30,10.447 29.552,10 29,10 L29,8 L37,8 L37,10 C36.448,10 36,10.447 36,11 L36,19 C36,19.553 36.448,20 37,20 L37,31 Z M37,40 C37,42.206 35.206,44 33,44 C30.794,44 29,42.206 29,40 L29,33 L37,33 L37,40 Z M26,17 L26,13 L26,12 L28,12 L28,18 L26,18 L26,17 Z M20,16 L24,16 L24,14 L20,14 L20,16 Z M18,18 L16,18 L16,12 L18,12 L18,13 L18,17 L18,18 Z M15,31 L7,31 L7,20 C7.552,20 8,19.553 8,19 L8,11 C8,10.447 7.552,10 7,10 L7,8 L15,8 L15,10 C14.448,10 14,10.447 14,11 L14,19 C14,19.553 14.448,20 15,20 L15,31 Z M15,40 C15,42.206 13.206,44 11,44 C8.794,44 7,42.206 7,40 L7,33 L15,33 L15,40 Z M4,18 L6,18 L6,12 L4,12 L4,18 Z M5,2 L17,2 L17,6 L16,6 L6,6 L5,6 L5,2 Z M27,2 L39,2 L39,6 L38,6 L28,6 L27,6 L27,2 Z M51,10 L55,10 L55,8 L51,8 L51,10 Z M50,17.963 L50.037,12 L56,12.037 L56,17.963 C56,17.983 55.983,18 55.963,18 L50,17.963 Z M57,48.142 L57,19.707 C57.596,19.351 58,18.706 58,17.963 L58,12.037 C58,11.294 57.596,10.649 57,10.293 L57,7 C57,6.447 56.552,6 56,6 L50,6 C49.448,6 49,6.447 49,7 L49,10.293 C48.414,10.643 48.017,11.273 48.004,12 L42,12 L42,11 C42,10.447 41.552,10 41,10 L39,10 L39,8 L40,8 C40.552,8 41,7.553 41,7 L41,1 C41,0.447 40.552,0 40,0 L26,0 C25.448,0 25,0.447 25,1 L25,7 C25,7.553 25.448,8 26,8 L27,8 L27,10 L25,10 C24.448,10 24,10.447 24,11 L24,12 L20,12 L20,11 C20,10.447 19.552,10 19,10 L17,10 L17,8 L18,8 C18.552,8 19,7.553 19,7 L19,1 C19,0.447 18.552,0 18,0 L4,0 C3.448,0 3,0.447 3,1 L3,7 C3,7.553 3.448,8 4,8 L5,8 L5,10 L3,10 C2.448,10 2,10.447 2,11 L2,19 C2,19.553 2.448,20 3,20 L5,20 L5,32 L5,40 C5,43.309 7.691,46 11,46 C14.309,46 17,43.309 17,40 L17,32 L17,20 L19,20 C19.552,20 20,19.553 20,19 L20,18 L24,18 L24,19 C24,19.553 24.448,20 25,20 L27,20 L27,32 L27,40 C27,43.309 29.691,46 33,46 C36.309,46 39,43.309 39,40 L39,32 L39,20 L41,20 C41.552,20 42,19.553 42,19 L42,18 L48.004,18 C48.017,18.727 48.414,19.357 49,19.707 L49,48 L4,48 C1.794,48 0,49.794 0,52 C0,54.206 1.794,56 4,56 L25,56 C25.266,56 25.52,55.895 25.708,55.707 L27.414,54 L33.586,54 L35.292,55.707 C35.48,55.895 35.734,56 36,56 L56,56 C58.206,56 60,54.206 60,52 C60,50.141 58.72,48.589 57,48.142 L57,48.142 Z" id="Shape"></path>
                    </g>
                </g>
            </g>
        </g>
    </g>
</svg>