<?xml version="1.0" encoding="UTF-8"?>
<svg width="60px" height="60px" viewBox="0 0 60 60" version="1.1" xmlns="http://www.w3.org/2000/svg" xmlns:xlink="http://www.w3.org/1999/xlink">
    <title>ic-institutional</title>
    <g id="Page-1" stroke="none" stroke-width="1" fill="none" fill-rule="evenodd">
        <g id="Desktop-HD" transform="translate(-1018.000000, -1856.000000)" fill="#109FDA" fill-rule="nonzero">
            <g id="Group-15" transform="translate(125.000000, 1654.000000)">
                <g id="Group-9" transform="translate(831.000000, 184.000000)">
                    <g id="ic-institutional" transform="translate(62.000000, 18.000000)">
                        <path d="M5,51.998 L11,51.998 C11.5522847,51.998 12,51.5502847 12,50.998 L12,16.998 C12,16.4457153 11.5522847,15.998 11,15.998 L5,15.998 C4.44771525,15.998 4,16.4457153 4,16.998 L4,50.998 C4,51.5502847 4.44771525,51.998 5,51.998 Z M6,49.998 L6,17.998 L10,17.998 L10,49.998 L6,49.998 Z" id="Shape"></path>
                        <path d="M49,51.998 L55,51.998 C55.5522847,51.998 56,51.5502847 56,50.998 L56,16.998 C56,16.4457153 55.5522847,15.998 55,15.998 L49,15.998 C48.4477153,15.998 48,16.4457153 48,16.998 L48,50.998 C48,51.5502847 48.4477153,51.998 49,51.998 Z M50,17.998 L54,17.998 L54,49.998 L50,49.998 L50,17.998 Z" id="Shape"></path>
                        <path d="M34,51.998 L40,51.998 C40.5522847,51.998 41,51.5502847 41,50.998 L41,16.998 C41,16.4457153 40.5522847,15.998 40,15.998 L34,15.998 C33.4477153,15.998 33,16.4457153 33,16.998 L33,50.998 C33,51.5502847 33.4477153,51.998 34,51.998 Z M35,17.998 L39,17.998 L39,49.998 L35,49.998 L35,17.998 Z" id="Shape"></path>
                        <path d="M20,51.998 L26,51.998 C26.5522847,51.998 27,51.5502847 27,50.998 L27,16.998 C27,16.4457153 26.5522847,15.998 26,15.998 L20,15.998 C19.4477153,15.998 19,16.4457153 19,16.998 L19,50.998 C19,51.5502847 19.4477153,51.998 20,51.998 Z M21,49.998 L21,17.998 L25,17.998 L25,49.998 L21,49.998 Z" id="Shape"></path>
                        <path d="M55.1174381,15.9982 L4.8825619,15.9982 L30,2.14030311 L55.1174381,15.9982 Z M59,17.9982 C60.0334328,17.9982 60.387928,16.6218503 59.4830773,16.1226223 L30.4830773,0.12262232 C30.1823901,-0.043274105 29.8176099,-0.043274105 29.5169227,0.12262232 L0.51692266,16.1226223 C-0.38792804,16.6218503 -0.033432799,17.9982 1,17.9982 L59,17.9982 Z" id="Shape"></path>
                        <path d="M21.618034,57.9982 L24.618034,51.9982 L35.381966,51.9982 L38.381966,57.9982 L21.618034,57.9982 Z M18.381966,59.9982 L41.618034,59.9982 L36.618034,49.9982 L23.381966,49.9982 L18.381966,59.9982 Z" id="Shape"></path>
                        <path d="M24,49.9982 L5,49.9982 C4.44771525,49.9982 4,50.4459153 4,50.9982 L4,54.9982 C4,55.5504847 4.44771525,55.9982 5,55.9982 L22,55.9982 C22.3787721,55.9982 22.7250352,55.7841976 22.8944272,55.4454136 L24.8944272,51.4454136 C25.2268777,50.7805125 24.743382,49.9982 24,49.9982 Z M21.381966,53.9982 L6,53.9982 L6,51.9982 L22.381966,51.9982 L21.381966,53.9982 Z" id="Shape"></path>
                        <path d="M35.1055728,51.4454136 L37.1055728,55.4454136 C37.2749648,55.7841976 37.6212279,55.9982 38,55.9982 L55,55.9982 C55.5522847,55.9982 56,55.5504847 56,54.9982 L56,50.9982 C56,50.4459153 55.5522847,49.9982 55,49.9982 L36,49.9982 C35.256618,49.9982 34.7731223,50.7805125 35.1055728,51.4454136 Z M54,51.9982 L54,53.9982 L38.618034,53.9982 L37.618034,51.9982 L54,51.9982 Z" id="Shape"></path>
                        <path d="M2,54.9982 L2,58.9982 C2,59.5504847 2.44771525,59.9982 3,59.9982 L20,59.9982 C20.3787721,59.9982 20.7250352,59.7841976 20.8944272,59.4454136 L22.8944272,55.4454136 C23.2268777,54.7805125 22.743382,53.9982 22,53.9982 L3,53.9982 C2.44771525,53.9982 2,54.4459153 2,54.9982 Z M20.381966,55.9982 L19.381966,57.9982 L4,57.9982 L4,55.9982 L20.381966,55.9982 Z" id="Shape"></path>
                        <path d="M37.1055728,55.4454136 L39.1055728,59.4454136 C39.2749648,59.7841976 39.6212279,59.9982 40,59.9982 L57,59.9982 C57.5522847,59.9982 58,59.5504847 58,58.9982 L58,54.9982 C58,54.4459153 57.5522847,53.9982 57,53.9982 L38,53.9982 C37.256618,53.9982 36.7731223,54.7805125 37.1055728,55.4454136 Z M56,55.9982 L56,57.9982 L40.618034,57.9982 L39.618034,55.9982 L56,55.9982 Z" id="Shape"></path>
                        <path d="M1,59.9982 L59,59.9982 C59.5522847,59.9982 60,59.5504847 60,58.9982 C60,58.4459153 59.5522847,57.9982 59,57.9982 L1,57.9982 C0.44771525,57.9982 0,58.4459153 0,58.9982 C0,59.5504847 0.44771525,59.9982 1,59.9982 Z" id="Path"></path>
                    </g>
                </g>
            </g>
        </g>
    </g>
</svg>