<?xml version="1.0" encoding="UTF-8"?>
<svg width="96px" height="93px" viewBox="0 0 96 93" version="1.1" xmlns="http://www.w3.org/2000/svg" xmlns:xlink="http://www.w3.org/1999/xlink">
    <title>ic-job</title>
    <g id="Page-1" stroke="none" stroke-width="1" fill="none" fill-rule="evenodd">
        <g id="Desktop-HD" transform="translate(-999.000000, -2323.000000)" fill="#109FDA" fill-rule="nonzero">
            <g id="Group-16" transform="translate(736.000000, 2305.000000)">
                <g id="ic-job" transform="translate(263.000000, 18.000000)">
                    <path d="M89.4281115,57.664 C93.7321115,51.632 96.0041115,44.656 96.0041115,37.456 C96.0041115,16.8 77.3481115,9.23705556e-14 54.4041115,9.23705556e-14 C38.6121115,9.23705556e-14 24.0041115,8.224 17.0601115,20.976 C6.72411149,27.808 0.00411148753,38.8 0.00411148753,51.2 C0.00411148753,58.4 2.27611149,65.376 6.58011149,71.408 C5.76411149,80.32 3.60411149,86.944 0.468111488,90.064 C-0.0118885125,90.544 -0.139888512,91.296 0.164111488,91.904 C0.452111488,92.464 0.996111488,92.8 1.60411149,92.8 C1.68411149,92.8 1.74811149,92.8 1.82811149,92.784 C2.38811149,92.704 15.3161115,90.848 24.7401115,85.44 C30.0681115,87.568 35.7481115,88.656 41.6041115,88.656 C55.2521115,88.656 67.3641115,82.72 74.9641115,73.552 C83.7801115,77.536 93.7481115,78.976 94.1801115,79.04 C94.2601115,79.056 94.3241115,79.056 94.4041115,79.056 C95.0121115,79.056 95.5561115,78.72 95.8281115,78.176 C96.1321115,77.568 96.0201115,76.816 95.5241115,76.336 C92.4041115,73.2 90.2441115,66.592 89.4281115,57.664 Z M41.6041115,85.456 C36.9801115,85.456 32.5001115,84.72 28.2281115,83.296 C33.5561115,79.952 33.5721115,79.68 33.5561115,78.784 C33.5561115,78.224 33.2521115,77.696 32.7721115,77.408 C32.0521115,76.976 31.1241115,77.168 30.6441115,77.84 C29.8601115,78.464 26.6281115,80.528 23.7641115,82.288 C23.7641115,82.288 23.7641115,82.288 23.7641115,82.288 C17.8441115,85.856 9.94011149,87.904 5.28411149,88.88 C8.16411149,83.808 9.34811149,76.688 9.81211149,71.056 C9.84411149,70.672 9.73211149,70.288 9.50811149,69.968 C5.38011149,64.4 3.20411149,57.904 3.20411149,51.2 C3.20411149,39.648 9.65211149,29.424 19.5081115,23.216 C20.1161115,22.832 20.7401115,22.464 21.3801115,22.112 C21.5241115,22.032 21.6841115,21.936 21.8281115,21.856 C22.5001115,21.488 23.1721115,21.168 23.8761115,20.832 C24.1321115,20.72 24.3881115,20.592 24.6441115,20.48 C25.3481115,20.176 26.0521115,19.872 26.7721115,19.6 C27.0281115,19.504 27.2841115,19.424 27.5401115,19.328 C28.1161115,19.12 28.6921115,18.944 29.2681115,18.768 C29.5401115,18.688 29.7961115,18.608 30.0681115,18.528 C30.8201115,18.32 31.5881115,18.128 32.3561115,17.952 C32.6281115,17.888 32.8841115,17.84 33.1561115,17.792 C33.8441115,17.648 34.5321115,17.536 35.2361115,17.424 C35.3961115,17.392 35.5561115,17.376 35.7161115,17.344 C36.5641115,17.232 37.4121115,17.136 38.2761115,17.072 C38.5001115,17.056 38.7241115,17.04 38.9481115,17.024 C39.8441115,16.976 40.7241115,16.928 41.6201115,16.928 C62.7881115,16.928 80.0201115,32.304 80.0201115,51.184 C80.0201115,51.952 79.9881115,52.72 79.9241115,53.488 C79.9081115,53.68 79.8921115,53.888 79.8761115,54.08 C79.8121115,54.784 79.7161115,55.488 79.6041115,56.192 C79.5881115,56.256 79.5881115,56.32 79.5721115,56.368 C79.4441115,57.104 79.2841115,57.824 79.1081115,58.544 C79.0601115,58.768 78.9961115,58.992 78.9321115,59.2 C78.7561115,59.84 78.5801115,60.464 78.3561115,61.088 C78.3081115,61.248 78.2441115,61.408 78.1801115,61.584 C77.9561115,62.192 77.7161115,62.8 77.4601115,63.392 C77.3641115,63.632 77.2521115,63.872 77.1401115,64.112 C76.8521115,64.736 76.5481115,65.36 76.2281115,65.968 C76.1321115,66.144 76.0361115,66.32 75.9241115,66.496 C75.6361115,67.008 75.3321115,67.52 75.0121115,68.016 C74.8681115,68.24 74.7401115,68.448 74.5961115,68.672 C74.1961115,69.264 73.7961115,69.84 73.3481115,70.416 C66.4521115,79.504 54.7881115,85.456 41.6041115,85.456 Z M76.9481115,70.944 C77.0121115,70.848 77.0761115,70.752 77.1401115,70.656 C77.5081115,70.112 77.8761115,69.552 78.2121115,68.976 C78.4041115,68.656 78.5801115,68.336 78.7561115,68.016 C78.9481115,67.664 79.1401115,67.312 79.3321115,66.96 C79.5081115,66.624 79.6681115,66.304 79.8281115,65.968 C80.0681115,65.472 80.2921115,64.976 80.5001115,64.464 C80.6601115,64.08 80.8201115,63.68 80.9641115,63.296 C81.1401115,62.848 81.3001115,62.4 81.4441115,61.936 C81.5401115,61.632 81.6361115,61.328 81.7321115,61.024 C81.8761115,60.528 82.0201115,60.016 82.1481115,59.52 C82.2121115,59.296 82.2761115,59.056 82.3241115,58.832 C82.4841115,58.112 82.6281115,57.392 82.7401115,56.656 C82.7721115,56.432 82.8041115,56.192 82.8361115,55.968 C82.9161115,55.392 82.9801115,54.832 83.0281115,54.256 C83.0441115,54.016 83.0761115,53.792 83.0921115,53.552 C83.1721115,52.768 83.2041115,51.984 83.2041115,51.2 C83.2041115,30.544 64.5481115,13.744 41.6041115,13.744 C40.8361115,13.744 40.0841115,13.76 39.3161115,13.808 C39.0441115,13.824 38.7721115,13.84 38.5001115,13.872 C38.0201115,13.904 37.5401115,13.936 37.0761115,13.984 C36.7401115,14.016 36.4041115,14.064 36.0521115,14.096 C35.6521115,14.144 35.2681115,14.192 34.8681115,14.256 C34.4841115,14.304 34.1161115,14.368 33.7481115,14.432 C33.4121115,14.496 33.0761115,14.56 32.7401115,14.624 C32.3401115,14.704 31.9241115,14.784 31.5241115,14.88 C31.2361115,14.944 30.9641115,15.008 30.6761115,15.088 C30.2281115,15.2 29.7961115,15.312 29.3641115,15.424 C29.1721115,15.472 28.9801115,15.536 28.7881115,15.6 C27.1081115,16.096 25.4761115,16.672 23.8761115,17.36 C23.7641115,17.408 23.6521115,17.456 23.5401115,17.504 C23.3961115,17.568 23.2521115,17.616 23.1081115,17.68 C30.2121115,8.72 41.9081115,3.2 54.4041115,3.2 C75.5721115,3.2 92.8041115,18.576 92.8041115,37.456 C92.8041115,44.16 90.6281115,50.656 86.5001115,56.256 C86.2761115,56.576 86.1641115,56.96 86.1961115,57.344 C86.6601115,62.96 87.8441115,70.08 90.7241115,75.152 C87.2201115,74.432 81.8921115,73.088 76.9481115,70.944 Z" id="Shape"></path>
                    <path d="M20.8041115,44.8 C17.2681115,44.8 14.4041115,47.664 14.4041115,51.2 C14.4041115,54.736 17.2681115,57.6 20.8041115,57.6 C24.3401115,57.6 27.2041115,54.736 27.2041115,51.2 C27.2041115,47.664 24.3401115,44.8 20.8041115,44.8 Z M20.8041115,54.4 C19.0441115,54.4 17.6041115,52.96 17.6041115,51.2 C17.6041115,49.44 19.0441115,48 20.8041115,48 C22.5641115,48 24.0041115,49.44 24.0041115,51.2 C24.0041115,52.96 22.5641115,54.4 20.8041115,54.4 Z" id="Shape"></path>
                    <path d="M41.6041115,44.8 C38.0681115,44.8 35.2041115,47.664 35.2041115,51.2 C35.2041115,54.736 38.0681115,57.6 41.6041115,57.6 C45.1401115,57.6 48.0041115,54.736 48.0041115,51.2 C48.0041115,47.664 45.1401115,44.8 41.6041115,44.8 Z M41.6041115,54.4 C39.8441115,54.4 38.4041115,52.96 38.4041115,51.2 C38.4041115,49.44 39.8441115,48 41.6041115,48 C43.3641115,48 44.8041115,49.44 44.8041115,51.2 C44.8041115,52.96 43.3641115,54.4 41.6041115,54.4 Z" id="Shape"></path>
                    <path d="M62.4041115,44.8 C58.8681115,44.8 56.0041115,47.664 56.0041115,51.2 C56.0041115,54.736 58.8681115,57.6 62.4041115,57.6 C65.9401115,57.6 68.8041115,54.736 68.8041115,51.2 C68.8041115,47.664 65.9401115,44.8 62.4041115,44.8 Z M62.4041115,54.4 C60.6441115,54.4 59.2041115,52.96 59.2041115,51.2 C59.2041115,49.44 60.6441115,48 62.4041115,48 C64.1641115,48 65.6041115,49.44 65.6041115,51.2 C65.6041115,52.96 64.1641115,54.4 62.4041115,54.4 Z" id="Shape"></path>
                </g>
            </g>
        </g>
    </g>
</svg>