<?xml version="1.0" encoding="UTF-8"?>
<svg width="100px" height="42px" viewBox="0 0 100 42" version="1.1" xmlns="http://www.w3.org/2000/svg" xmlns:xlink="http://www.w3.org/1999/xlink">
    <title>ic-maintenance</title>
    <g id="Page-1" stroke="none" stroke-width="1" fill="none" fill-rule="evenodd">
        <g id="Desktop-HD" transform="translate(-795.000000, -1420.000000)" stroke="#CC3538" stroke-width="3">
            <g id="Group-21" transform="translate(0.000000, 40.000000)">
                <g id="Group-8" transform="translate(80.000000, 1090.000000)">
                    <g id="Group-4-Copy-2" transform="translate(655.000000, 218.000000)">
                        <g id="ic-maintenance" transform="translate(62.000000, 74.000000)">
                            <path d="M21.5172414,31.4482759 C21.5172414,27.792 18.5528276,24.8275862 14.8965517,24.8275862 C11.2402759,24.8275862 8.27586207,27.792 8.27586207,31.4482759 C8.27586207,35.1045517 11.2402759,38.0689655 14.8965517,38.0689655 C18.5528276,38.0689655 21.5172414,35.1045517 21.5172414,31.4482759 Z" id="Path"></path>
                            <path d="M82.7586207,31.4482759 C82.7586207,27.792 79.7942069,24.8275862 76.137931,24.8275862 C72.4816552,24.8275862 69.5172414,27.792 69.5172414,31.4482759 C69.5172414,35.1045517 72.4816552,38.0689655 76.137931,38.0689655 C79.7942069,38.0689655 82.7586207,35.1045517 82.7586207,31.4482759 Z" id="Path"></path>
                            <path d="M91.0344828,33.1034483 C93.7771034,33.1034483 96,30.8805517 96,28.137931 L96,21.5172414 C96,14.390069 95.7831724,0 87.7241379,0 L33.1034483,0 C26.4827586,0 23.1724138,4.96551724 18.2068966,9.93103448 C12.9765517,15.1613793 0,18.2068966 0,21.5172414 L0,28.137931 L0,29.7931034 C0,31.6204138 1.48303448,33.1034483 3.31034483,33.1034483 L8.51089655,33.1034483 C8.37351724,32.5721379 8.27586207,32.0242759 8.27586207,31.4482759 C8.27586207,27.792 11.2402759,24.8275862 14.8965517,24.8275862 C18.5528276,24.8275862 21.5172414,27.792 21.5172414,31.4482759 C21.5172414,32.0242759 21.4195862,32.5721379 21.2822069,33.1034483 L69.7522759,33.1034483 C69.6148966,32.5721379 69.5172414,32.0242759 69.5172414,31.4482759 C69.5172414,27.792 72.4816552,24.8275862 76.137931,24.8275862 C79.7942069,24.8275862 82.7586207,27.792 82.7586207,31.4482759 C82.7586207,32.0242759 82.6609655,32.5721379 82.5235862,33.1034483 L91.0344828,33.1034483 Z" id="Path" fill-opacity="0.25" fill="#FCE013" stroke-linecap="round" stroke-linejoin="round"></path>
                            <path d="M18.2068966,9.93103448 C16.9953103,11.1426207 15.3583448,12.2333793 13.574069,13.2413793 L36.4137931,13.2413793 C38.2411034,13.2413793 39.7241379,11.7583448 39.7241379,9.93103448 L39.7241379,0 L33.1034483,0 C26.4827586,0 23.1724138,4.96551724 18.2068966,9.93103448 Z" id="Path" stroke-linecap="round" stroke-linejoin="round"></path>
                        </g>
                    </g>
                </g>
            </g>
        </g>
    </g>
</svg>