<?xml version="1.0" encoding="UTF-8"?>
<svg width="96px" height="77px" viewBox="0 0 96 77" version="1.1" xmlns="http://www.w3.org/2000/svg" xmlns:xlink="http://www.w3.org/1999/xlink">
    <title>ic-process-piping</title>
    <g id="Page-1" stroke="none" stroke-width="1" fill="none" fill-rule="evenodd">
        <g id="Desktop-HD" transform="translate(-142.000000, -1403.000000)" fill-rule="nonzero">
            <g id="Group-21" transform="translate(0.000000, 40.000000)">
                <g id="Group-8" transform="translate(80.000000, 1090.000000)">
                    <g id="Group-4-Copy" transform="translate(0.000000, 218.000000)">
                        <g id="ic-process-piping" transform="translate(62.000000, 55.000000)">
                            <path d="M51.2,2.84217094e-14 C62.6688,2.84217094e-14 72,9.3312 72,20.8 C72,29.4351648 66.7101568,36.8585274 59.200936,39.9996221 L59.2,48 L69.35904,48 C72.57984,48 75.20064,50.6208 75.20064,53.84 L75.2,54.4 L94.4,54.4 C95.2848,54.4 96,55.1152 96,56 C96,56.8848 95.2848,57.6 94.4,57.6 L75.2,57.6 L75.2,67.2 L94.4,67.2 C95.2848,67.2 96,67.9152 96,68.8 C96,69.6848 95.2848,70.4 94.4,70.4 L75.2,70.4 L75.20064,70.96 C75.20064,74.1792 72.57984,76.8 69.35904,76.8 L33.04064,76.8 C29.81984,76.8 27.20064,74.1792 27.20064,70.96 L27.1998974,70.3566635 C12.0611558,69.5346247 0,57.1214071 0,41.9808 L0,1.6 C0,0.7152 0.7152,2.84217094e-14 1.6,2.84217094e-14 C2.4848,2.84217094e-14 3.2,0.7152 3.2,1.6 L3.2,41.9808 C3.2,55.3584 13.8272,66.3344 27.2,67.152 L27.2,57.9008 C19.1264,57.0976 12.8,50.264 12.8,41.9808 L12.8,1.6 C12.8,0.7152 13.5152,2.84217094e-14 14.4,2.84217094e-14 C15.2848,2.84217094e-14 16,0.7152 16,1.6 L16,41.9808 C16,48.4966733 20.8946836,53.8915018 27.2000687,54.6813033 L27.20064,53.84 C27.20064,50.6208 29.81984,48 33.04064,48 L43.2,48 L43.2000647,40.0000407 C35.6903132,36.8591869 30.4,29.4355484 30.4,20.8 C30.4,9.3312 39.7312,2.84217094e-14 51.2,2.84217094e-14 Z M56,48 L56.001123,41.040754 L55.6258011,41.126092 L55.6258011,41.126092 L55.3105793,41.1922075 L55.3105793,41.1922075 L54.9218532,41.2664705 L54.9218532,41.2664705 L54.4105746,41.3527716 L54.4105746,41.3527716 L54.1077553,41.3974212 L54.1077553,41.3974212 L53.7213252,41.4482051 L53.7213252,41.4482051 L53.099523,41.5142267 L53.099523,41.5142267 L52.5891204,41.5543934 L52.5891204,41.5543934 L51.7097957,41.5941143 L51.7097957,41.5941143 L51.19984,41.60032 L51.19984,41.60032 L50.8839376,41.5979547 L50.8839376,41.5979547 L50.4334509,41.586066 L50.4334509,41.586066 L49.6964189,41.5465111 L49.6964189,41.5465111 L49.2987882,41.5140967 L49.2987882,41.5140967 L49.0767819,41.4924445 L49.0767819,41.4924445 C48.8141225,41.4659466 48.5526916,41.4342642 48.2922729,41.3976669 L47.8690317,41.333719 L47.8690317,41.333719 L47.4781184,41.2664795 L47.4781184,41.2664795 L46.9140294,41.1561668 L46.9140294,41.1561668 L46.3998781,41.0409914 L46.3998781,41.0409914 L46.4,48 L56,48 Z" id="Shape" fill="#FCE013" opacity="0.25"></path>
                            <path d="M33.04064,51.2 C31.58464,51.2 30.40064,52.384 30.40064,53.84 L30.40064,70.96 C30.40064,72.416 31.58464,73.6 33.04064,73.6 L69.35904,73.6 C70.81504,73.6 72.00064,72.416 72.00064,70.96 L72.00064,53.84 C72.00064,52.384 70.81504,51.2 69.35904,51.2 L33.04064,51.2 Z M69.35904,76.8 L33.04064,76.8 C29.81984,76.8 27.20064,74.1792 27.20064,70.96 L27.20064,53.84 C27.20064,50.6208 29.81984,48 33.04064,48 L69.35904,48 C72.57984,48 75.20064,50.6208 75.20064,53.84 L75.20064,70.96 C75.20064,74.1792 72.57984,76.8 69.35904,76.8 L69.35904,76.8 Z" id="Shape" fill="#CC3538"></path>
                            <path d="M39.44064,57.6 C37.98464,57.6 36.80064,58.784 36.80064,60.24 L36.80064,64.56 C36.80064,66.016 37.98464,67.2 39.44064,67.2 L62.95904,67.2 C64.41504,67.2 65.60064,66.016 65.60064,64.56 L65.60064,60.24 C65.60064,58.784 64.41504,57.6 62.95904,57.6 L39.44064,57.6 Z M62.95904,70.4 L39.44064,70.4 C36.21984,70.4 33.60064,67.7792 33.60064,64.56 L33.60064,60.24 C33.60064,57.0208 36.21984,54.4 39.44064,54.4 L62.95904,54.4 C66.17984,54.4 68.80064,57.0208 68.80064,60.24 L68.80064,64.56 C68.80064,67.7792 66.17984,70.4 62.95904,70.4 L62.95904,70.4 Z" id="Shape" fill="#CC3538"></path>
                            <path d="M94.4,70.4 L73.6,70.4 C72.7152,70.4 72,69.6848 72,68.8 L72,56 C72,55.1152 72.7152,54.4 73.6,54.4 L94.4,54.4 C95.2848,54.4 96,55.1152 96,56 C96,56.8848 95.2848,57.6 94.4,57.6 L75.2,57.6 L75.2,67.2 L94.4,67.2 C95.2848,67.2 96,67.9152 96,68.8 C96,69.6848 95.2848,70.4 94.4,70.4" id="Path" fill="#CC3538"></path>
                            <path d="M28.8,70.4 C12.92,70.4 0,57.6512 0,41.9808 L0,1.6 C0,0.7152 0.7152,0 1.6,0 C2.4848,0 3.2,0.7152 3.2,1.6 L3.2,41.9808 C3.2,55.3584 13.8272,66.3344 27.2,67.152 L27.2,57.9008 C19.1264,57.0976 12.8,50.264 12.8,41.9808 L12.8,1.6 C12.8,0.7152 13.5152,0 14.4,0 C15.2848,0 16,0.7152 16,1.6 L16,41.9808 C16,49.0384 21.7424,54.7808 28.8,54.7808 C29.6848,54.7808 30.4,55.4976 30.4,56.3808 L30.4,68.8 C30.4,69.6848 29.6848,70.4 28.8,70.4" id="Path" fill="#CC3538"></path>
                            <path d="M51.2,3.2 C41.496,3.2 33.6,11.096 33.6,20.8 C33.6,30.504 41.496,38.4 51.2,38.4 C60.904,38.4 68.8,30.504 68.8,20.8 C68.8,11.096 60.904,3.2 51.2,3.2 M51.2,41.6 C39.7312,41.6 30.4,32.2688 30.4,20.8 C30.4,9.3312 39.7312,0 51.2,0 C62.6688,0 72,9.3312 72,20.8 C72,32.2688 62.6688,41.6 51.2,41.6" id="Shape" fill="#CC3538"></path>
                            <path d="M46.4,48 L56,48 L56,41.0272 C52.832,41.7888 49.568,41.7888 46.4,41.0272 L46.4,48 Z M57.6,51.2 L44.8,51.2 C43.9152,51.2 43.2,50.4848 43.2,49.6 L43.2,38.8848 C43.2,38.3664 43.4512,37.8784 43.8768,37.5776 C44.3008,37.2784 44.8416,37.2 45.3344,37.376 C49.1712,38.736 53.2288,38.736 57.0656,37.376 C57.5584,37.2 58.0992,37.2784 58.5232,37.5776 C58.9488,37.8784 59.2,38.3664 59.2,38.8848 L59.2,49.6 C59.2,50.4848 58.4848,51.2 57.6,51.2 L57.6,51.2 Z" id="Shape" fill="#CC3538"></path>
                            <path d="M42.53904,36.11552 C47.81424,39.11232 54.58544,39.11232 59.86064,36.11552 C57.74704,33.51392 54.60784,32.00032 51.19984,32.00032 C47.79184,32.00032 44.65264,33.51392 42.53904,36.11552 M51.19984,41.60032 C46.94704,41.60032 42.84944,40.31552 39.35344,37.88512 C38.65744,37.40352 38.45904,36.46432 38.89904,35.74272 C41.53744,31.39552 46.13584,28.80032 51.19984,28.80032 C56.26384,28.80032 60.86224,31.39552 63.50224,35.74272 C63.94064,36.46432 63.74224,37.40352 63.04624,37.88512 C59.55024,40.31552 55.45264,41.60032 51.19984,41.60032" id="Shape" fill="#CC3538"></path>
                            <path d="M40,20.8 C40,21.6832 39.2832,22.4 38.4,22.4 C37.5168,22.4 36.8,21.6832 36.8,20.8 C36.8,19.9168 37.5168,19.2 38.4,19.2 C39.2832,19.2 40,19.9168 40,20.8" id="Path" fill="#CC3538"></path>
                            <path d="M65.6,20.8 C65.6,21.6832 64.8832,22.4 64,22.4 C63.1168,22.4 62.4,21.6832 62.4,20.8 C62.4,19.9168 63.1168,19.2 64,19.2 C64.8832,19.2 65.6,19.9168 65.6,20.8" id="Path" fill="#CC3538"></path>
                            <path d="M43.2,12.8 C43.2,13.6832 42.4832,14.4 41.6,14.4 C40.7168,14.4 40,13.6832 40,12.8 C40,11.9168 40.7168,11.2 41.6,11.2 C42.4832,11.2 43.2,11.9168 43.2,12.8" id="Path" fill="#CC3538"></path>
                            <path d="M52.8,8 C52.8,8.8832 52.0832,9.6 51.2,9.6 C50.3168,9.6 49.6,8.8832 49.6,8 C49.6,7.1168 50.3168,6.4 51.2,6.4 C52.0832,6.4 52.8,7.1168 52.8,8" id="Path" fill="#CC3538"></path>
                            <path d="M62.4,12.8 C62.4,13.6832 61.6832,14.4 60.8,14.4 C59.9168,14.4 59.2,13.6832 59.2,12.8 C59.2,11.9168 59.9168,11.2 60.8,11.2 C61.6832,11.2 62.4,11.9168 62.4,12.8" id="Path" fill="#CC3538"></path>
                            <path d="M51.2016,25.6 C50.7424,25.6 50.288,25.4048 49.9712,25.0256 L44.6112,18.5984 C44.0432,17.92 44.136,16.9104 44.8144,16.3456 C45.496,15.7776 46.5024,15.8704 47.0672,16.5488 L52.4288,22.9744 C52.9952,23.6528 52.9024,24.6624 52.2256,25.2288 C51.9248,25.4784 51.5632,25.6 51.2016,25.6" id="Path" fill="#CC3538"></path>
                            <path d="M41.6,64 L35.2,64 C34.3152,64 33.6,63.2848 33.6,62.4 C33.6,61.5152 34.3152,60.8 35.2,60.8 L41.6,60.8 C42.4848,60.8 43.2,61.5152 43.2,62.4 C43.2,63.2848 42.4848,64 41.6,64" id="Path" fill="#CC3538"></path>
                            <path d="M67.2,64 L60.8,64 C59.9152,64 59.2,63.2848 59.2,62.4 C59.2,61.5152 59.9152,60.8 60.8,60.8 L67.2,60.8 C68.0848,60.8 68.8,61.5152 68.8,62.4 C68.8,63.2848 68.0848,64 67.2,64" id="Path" fill="#CC3538"></path>
                        </g>
                    </g>
                </g>
            </g>
        </g>
    </g>
</svg>