<?xml version="1.0" encoding="UTF-8"?>
<svg width="320px" height="62px" viewBox="0 0 320 62" version="1.1" xmlns="http://www.w3.org/2000/svg" xmlns:xlink="http://www.w3.org/1999/xlink">
    <title>hover</title>
    <defs>
        <linearGradient x1="100.033568%" y1="50.0084471%" x2="0.000141067973%" y2="50.0084471%" id="linearGradient-1">
            <stop stop-color="#CC3538" offset="0%"></stop>
            <stop stop-color="#FCE013" offset="50%"></stop>
            <stop stop-color="#109FDA" offset="100%"></stop>
        </linearGradient>
        <path d="M79.730019,6.79 C79.7059316,6.76087309 79.6791459,6.73408737 79.650019,6.71 C79.6015042,6.65954714 79.5438051,6.61881833 79.480019,6.59 L69.720019,0.69 C69.4978172,0.559285402 69.2222207,0.559285402 69.000019,0.69 L59.280019,6.52 L59.280019,6.52 L59.170019,6.6 L40.170019,26.6 L21.170019,6.65 L20.950019,6.59 L20.950019,6.59 L11.210019,0.7 C10.9841562,0.56959806 10.7058817,0.56959806 10.480019,0.7 L0.720018954,6.59 C0.653516567,6.63988262 0.596023167,6.70075799 0.550018954,6.77 C0.550018954,6.77 0.490018954,6.77 0.470018954,6.85 C0.415571805,6.94461167 0.384702082,7.05094071 0.379998162,7.16 L0.379998162,53.96 C0.378110504,54.2063564 0.507698041,54.4350403 0.720018954,54.56 L10.480019,60.42 L10.480019,60.42 C10.6981372,60.5391671 10.9619008,60.5391671 11.180019,60.42 L11.180019,60.42 L20.950019,54.59 C21.1609772,54.4589184 21.2894821,54.2283656 21.290019,53.98 L21.290019,37.04 L34.700019,51.52 C34.7429539,51.5708705 34.7935625,51.6147312 34.850019,51.65 L39.740019,54.59 C39.9602326,54.7148021 40.2298053,54.7148021 40.450019,54.59 C40.450019,54.59 40.450019,54.59 40.450019,54.59 L45.380019,51.59 L45.530019,51.47 L58.920019,37.03 L58.920019,53.96 C58.9181105,54.2063564 59.047698,54.4350403 59.260019,54.56 L69.000019,60.4 L69.000019,60.4 C69.1072986,60.4588602 69.2276531,60.4898085 69.350019,60.49 C69.4690497,60.4885678 69.5858682,60.4576452 69.690019,60.4 L69.690019,60.4 L79.480019,54.59 C79.6893964,54.462168 79.8179508,54.2353073 79.820019,53.99 L79.820019,7.14 C79.820019,7.01763416 79.7888791,6.89727962 79.730019,6.79 L79.730019,6.79 Z M19.880019,53.59 L11.540019,58.59 L11.540019,27.59 L11.540019,26.49 L19.900019,35.49 L19.880019,53.59 Z M21.460019,22.65 L11.980019,13.15 L10.840019,12.15 L5.60001895,9.05 L2.45001895,7.16 L10.850019,2.16 L19.200019,7.16 L20.440019,8.05 L40.100019,28.68 L40.100019,41.28 L21.460019,22.65 Z M78.380019,53.59 L70.030019,58.59 L70.030019,24.72 C70.0282914,24.6161591 70.0044268,24.5138821 69.960019,24.42 L69.960019,24.32 L69.960019,24.32 C69.8872688,24.217242 69.7866447,24.1374366 69.670019,24.09 C69.590671,24.0755549 69.5093669,24.0755549 69.430019,24.09 L69.380019,24.09 L69.200019,24.09 L69.120019,24.09 C69.0448915,24.1275937 68.9771446,24.1784039 68.920019,24.24 L68.920019,24.24 L68.740019,24.44 L59.110019,34.73 C59.110019,34.73 59.110019,34.79 59.050019,34.81 L44.550019,50.48 L40.100019,53.14 L40.100019,43.25 L63.100019,20.25 L69.800019,13.59 L78.380019,8.38 L78.380019,53.59 Z" id="path-2"></path>
    </defs>
    <g id="Symbols" stroke="none" stroke-width="1" fill="none" fill-rule="evenodd">
        <g id="Header" transform="translate(-78.000000, -70.000000)" fill-rule="nonzero">
            <g id="logo" transform="translate(78.000000, 70.000000)">
                <g id="hover" transform="translate(0.619981, 0.410000)">
                    <g id="Shape">
                        <use fill="url(#linearGradient-1)" xlink:href="#path-2"></use>
                        <use fill-opacity="0.5" fill="#08273F" xlink:href="#path-2"></use>
                    </g>
                    <path d="M131.660019,24.02 C131.863614,24.0344242 132.025595,24.1964054 132.040019,24.4 L132.040019,42.4 C132.025595,42.6035946 131.863614,42.7655758 131.660019,42.78 L128.170019,42.78 C127.966424,42.7655758 127.804443,42.6035946 127.790019,42.4 L127.790019,30.92 L127.700019,30.92 C127.389943,31.6282434 127.000806,32.2991689 126.540019,32.92 L121.020019,40.69 L115.460019,32.92 C115.015355,32.2958631 114.639818,31.6252615 114.340019,30.92 L114.240019,30.92 L114.240019,42.38 C114.226252,42.5801245 114.069705,42.7409025 113.870019,42.76 L110.380019,42.76 C110.178367,42.7450606 110.019577,42.5819791 110.010019,42.38 L110.010019,24.38 C110.019577,24.1780209 110.178367,24.0149394 110.380019,24 L113.130019,24 C113.365552,24.0006095 113.585896,24.1163833 113.720019,24.31 L121.000019,34.49 L121.060019,34.49 L128.330019,24.31 C128.469548,24.1173714 128.692177,24.0023461 128.930019,24 L131.660019,24.02 Z" id="Path" fill-opacity="0.75" fill="#81AACB"></path>
                    <path d="M143.840019,34.95 L143.840019,39.2 L154.840019,39.2 C155.06338,39.2348289 155.240065,39.4074981 155.280019,39.63 L155.280019,42.32 C155.243946,42.5463905 155.066409,42.7239272 154.840019,42.76 L139.970019,42.76 C139.766424,42.7455758 139.604443,42.5835946 139.590019,42.38 L139.590019,24.38 C139.604443,24.1764054 139.766424,24.0144242 139.970019,24 L154.640019,24 C154.866409,24.0360728 155.043946,24.2136095 155.080019,24.44 L155.080019,27.12 C155.043946,27.3463905 154.866409,27.5239272 154.640019,27.56 L143.840019,27.56 L143.840019,31.39 L153.700019,31.39 C153.926409,31.4260728 154.103946,31.6036095 154.140019,31.83 L154.140019,34.51 C154.103946,34.7363905 153.926409,34.9139272 153.700019,34.95 L143.840019,34.95 Z" id="Path" fill-opacity="0.75" fill="#81AACB"></path>
                    <path d="M176.120019,31.59 C175.810019,31.59 175.650019,31.46 175.590019,31.09 C175.280019,28.93 173.310019,27.28 170.500019,27.28 C168.899577,27.2723716 167.366623,27.9241463 166.261724,29.0820196 C165.156826,30.2398929 164.577503,31.8016688 164.660019,33.4 C164.562493,35.0022272 165.136813,36.5726626 166.244979,37.7339599 C167.353145,38.8952572 168.894983,39.5424391 170.500019,39.52 C173.340019,39.52 175.250019,38.11 175.590019,36.02 C175.650019,35.62 175.810019,35.49 176.180019,35.49 L179.300019,35.49 C179.434345,35.4790014 179.567423,35.5226965 179.669085,35.6111799 C179.770746,35.6996634 179.832382,35.825441 179.840019,35.96 C179.840019,39.96 176.060019,43.08 170.500019,43.08 C164.940019,43.08 160.380019,39.17 160.380019,33.39 C160.380019,27.61 164.810019,23.71 170.460019,23.71 C176.390019,23.71 179.800019,27.46 179.800019,31.17 C179.800019,31.39 179.640019,31.58 179.300019,31.58 L176.120019,31.59 Z" id="Path" fill-opacity="0.75" fill="#81AACB"></path>
                    <path d="M205.690019,42.38 C205.675595,42.5835946 205.513614,42.7455758 205.310019,42.76 L201.810019,42.76 C201.610333,42.7409025 201.453786,42.5801245 201.440019,42.38 L201.440019,35.73 L190.670019,35.73 L190.670019,42.38 C190.655595,42.5835946 190.493614,42.7455758 190.290019,42.76 L186.800019,42.76 C186.596424,42.7455758 186.434443,42.5835946 186.420019,42.38 L186.420019,24.38 C186.434443,24.1764054 186.596424,24.0144242 186.800019,24 L190.290019,24 C190.493614,24.0144242 190.655595,24.1764054 190.670019,24.38 L190.670019,32.15 L201.440019,32.15 L201.440019,24.4 C201.453786,24.1998755 201.610333,24.0390975 201.810019,24.02 L205.310019,24.02 C205.513614,24.0344242 205.675595,24.1964054 205.690019,24.4 L205.690019,42.38 Z" id="Path" fill-opacity="0.75" fill="#81AACB"></path>
                    <path d="M226.380019,39.51 L217.270019,39.51 L215.920019,42.35 C215.740019,42.72 215.640019,42.76 215.270019,42.76 L211.580019,42.76 C211.484387,42.7506727 211.404631,42.68288 211.380019,42.59 C211.400523,42.4566381 211.444539,42.3279752 211.510019,42.21 L220.310019,24.07 L223.560019,24.07 L232.360019,42.21 C232.428604,42.326572 232.472829,42.4558454 232.490029,42.59 C232.490617,42.6539378 232.463368,42.7149724 232.415367,42.7572133 C232.367366,42.7994543 232.303362,42.818722 232.240019,42.81 L228.520019,42.81 C228.150019,42.81 228.060019,42.81 227.870019,42.4 L226.380019,39.51 Z M218.770019,36.2 L224.950019,36.2 L223.260019,32.73 C222.764006,31.6408653 222.326713,30.5259335 221.950019,29.39 L221.760019,29.39 C221.388197,30.5276893 220.950798,31.6428897 220.450019,32.73 L218.770019,36.2 Z" id="Shape" fill-opacity="0.75" fill="#81AACB"></path>
                    <path d="M254.110019,42.76 L244.550019,33.01 C243.550019,32.01 242.430019,30.61 242.430019,30.61 L242.380019,30.61 L242.380019,42.38 C242.370461,42.5819791 242.211671,42.7450606 242.010019,42.76 L238.510019,42.76 C238.310333,42.7409025 238.153786,42.5801245 238.140019,42.38 L238.140019,24.38 C238.153786,24.1798755 238.310333,24.0190975 238.510019,24 L241.380019,24 L250.840019,33.62 C251.616937,34.4215502 252.348095,35.2662211 253.030019,36.15 L253.160019,36.15 L253.160019,24.4 C253.169577,24.1980209 253.328367,24.0349394 253.530019,24.02 L257.030019,24.02 C257.229705,24.0390975 257.386252,24.1998755 257.400019,24.4 L257.400019,42.4 C257.386252,42.6001245 257.229705,42.7609025 257.030019,42.78 L254.110019,42.76 Z" id="Path" fill-opacity="0.75" fill="#81AACB"></path>
                    <path d="M278.080019,39.51 L268.960019,39.51 L267.620019,42.35 C267.430019,42.72 267.340019,42.76 266.970019,42.76 L263.250019,42.76 C263.186676,42.768722 263.122672,42.7494543 263.074671,42.7072133 C263.02667,42.6649724 262.999421,42.6039378 263.000009,42.54 C263.017209,42.4058454 263.061434,42.276572 263.130019,42.16 L271.930019,24.02 L275.180019,24.02 L283.980019,42.16 C284.045499,42.2779752 284.089515,42.4066381 284.110019,42.54 C284.107526,42.6028744 284.079382,42.6619819 284.032144,42.7035512 C283.984906,42.7451204 283.9227,42.765521 283.860019,42.76 L280.140019,42.76 C279.770019,42.76 279.670019,42.76 279.490019,42.35 L278.080019,39.51 Z M270.460019,36.2 L276.640019,36.2 L274.960019,32.73 C274.45924,31.6428897 274.021841,30.5276893 273.650019,29.39 L273.460019,29.39 C273.083325,30.5259335 272.646032,31.6408653 272.150019,32.73 L270.460019,36.2 Z" id="Shape" fill-opacity="0.5" fill="#81AACB"></path>
                    <path d="M294.000019,42.38 C293.986252,42.5801245 293.829705,42.7409025 293.630019,42.76 L290.130019,42.76 C289.928367,42.7450606 289.769577,42.5819791 289.760019,42.38 L289.760019,24.38 C289.769577,24.1780209 289.928367,24.0149394 290.130019,24 L293.630019,24 C293.829705,24.0190975 293.986252,24.1798755 294.000019,24.38 L294.000019,42.38 Z" id="Path" fill-opacity="0.5" fill="#81AACB"></path>
                    <path d="M301.560019,24.4 C301.569577,24.1980209 301.728367,24.0349394 301.930019,24.02 L310.610019,24.02 C315.170019,24.02 318.420019,26.49 318.420019,30.58 C318.448092,33.1927403 316.716911,35.4982476 314.200019,36.2 L314.200019,36.26 C314.563983,36.6512105 314.898245,37.0690375 315.200019,37.51 L318.380019,42.13 C318.483997,42.2438833 318.550343,42.3870501 318.570019,42.54 C318.570019,42.66 318.510019,42.76 318.320019,42.76 L314.170019,42.76 C313.963134,42.7355545 313.778869,42.6176252 313.670019,42.44 L309.860019,36.89 L305.860019,36.89 L305.860019,42.38 C305.850461,42.5819791 305.691671,42.7450606 305.490019,42.76 L301.990019,42.76 C301.788367,42.7450606 301.629577,42.5819791 301.620019,42.38 L301.560019,24.4 Z M305.800019,27.59 L305.800019,33.52 L310.380019,33.52 C312.720019,33.52 314.220019,32.43 314.220019,30.59 C314.220019,28.75 312.720019,27.59 310.380019,27.59 L305.800019,27.59 Z" id="Shape" fill-opacity="0.5" fill="#81AACB"></path>
                </g>
            </g>
        </g>
    </g>
</svg>