<?xml version="1.0" encoding="UTF-8"?>
<svg width="319px" height="60px" viewBox="0 0 319 60" version="1.1" xmlns="http://www.w3.org/2000/svg" xmlns:xlink="http://www.w3.org/1999/xlink">
    <title>logo-hover</title>
    <defs>
        <linearGradient x1="0.000141067973%" y1="50.0084471%" x2="100.033568%" y2="50.0084471%" id="linearGradient-1">
            <stop stop-color="#CC3538" offset="0%"></stop>
            <stop stop-color="#FCE013" offset="50%"></stop>
            <stop stop-color="#109FDA" offset="100%"></stop>
        </linearGradient>
        <linearGradient x1="50%" y1="0%" x2="50%" y2="100%" id="linearGradient-2">
            <stop stop-color="#109FDA" offset="0%"></stop>
            <stop stop-color="#08273F" stop-opacity="0.307473776" offset="100%"></stop>
        </linearGradient>
        <path d="M79.35,6.2 C79.3259126,6.17087309 79.2991269,6.14408737 79.27,6.12 C79.2214853,6.06954714 79.1637861,6.02881833 79.1,6 L69.34,0.1 C69.1177982,-0.0307145984 68.8422018,-0.0307145984 68.62,0.1 L58.9,5.93 L58.9,5.93 L58.79,6.01 L39.79,26.01 L20.79,6.06 L20.57,6 L20.57,6 L10.83,0.11 C10.6041372,-0.0204019403 10.3258628,-0.0204019403 10.1,0.11 L0.34,6 C0.273497613,6.04988262 0.216004213,6.11075799 0.17,6.18 C0.17,6.18 0.11,6.18 0.09,6.26 C0.0355528513,6.35461167 0.00468312755,6.46094071 -2.0792199e-05,6.57 L-2.0792199e-05,53.37 C-0.0019084498,53.6163564 0.127679086,53.8450403 0.34,53.97 L10.1,59.83 L10.1,59.83 C10.3181182,59.9491671 10.5818818,59.9491671 10.8,59.83 L10.8,59.83 L20.57,54 C20.7809582,53.8689184 20.9094631,53.6383656 20.91,53.39 L20.91,36.45 L34.32,50.93 C34.362935,50.9808705 34.4135435,51.0247312 34.47,51.06 L39.36,54 C39.5802136,54.1248021 39.8497864,54.1248021 40.07,54 C40.07,54 40.07,54 40.07,54 L45,51 L45.15,50.88 L58.54,36.44 L58.54,53.37 C58.5380916,53.6163564 58.6676791,53.8450403 58.88,53.97 L68.62,59.81 L68.62,59.81 C68.7272796,59.8688602 68.8476342,59.8998085 68.97,59.9 C69.0890307,59.8985678 69.2058492,59.8676452 69.31,59.81 L69.31,59.81 L79.1,54 C79.3093774,53.872168 79.4379318,53.6453073 79.44,53.4 L79.44,6.55 C79.44,6.42763416 79.4088602,6.30727962 79.35,6.2 L79.35,6.2 Z M19.5,53 L11.16,58 L11.16,27 L11.16,25.9 L19.52,34.9 L19.5,53 Z M21.08,22.06 L11.6,12.56 L10.46,11.56 L5.22,8.46 L2.07,6.57 L10.47,1.57 L18.82,6.57 L20.06,7.46 L39.72,28.09 L39.72,40.69 L21.08,22.06 Z M78,53 L69.65,58 L69.65,24.13 C69.6482724,24.0261591 69.6244078,23.9238821 69.58,23.83 L69.58,23.73 L69.58,23.73 C69.5072499,23.627242 69.4066257,23.5474366 69.29,23.5 C69.2106521,23.4855549 69.1293479,23.4855549 69.05,23.5 L69,23.5 L68.82,23.5 L68.74,23.5 C68.6648725,23.5375937 68.5971257,23.5884039 68.54,23.65 L68.54,23.65 L68.36,23.85 L58.73,34.14 C58.73,34.14 58.73,34.2 58.67,34.22 L44.17,49.89 L39.72,52.55 L39.72,42.66 L62.72,19.66 L69.42,13 L78,7.79 L78,53 Z" id="path-3"></path>
    </defs>
    <g id="Symbols" stroke="none" stroke-width="1" fill="none" fill-rule="evenodd">
        <g id="Header" transform="translate(-79.000000, -71.000000)" fill-rule="nonzero">
            <g id="logo-hover" transform="translate(79.000000, 71.000000)">
                <g id="Shape">
                    <use fill="url(#linearGradient-1)" xlink:href="#path-3"></use>
                    <use fill="url(#linearGradient-2)" xlink:href="#path-3"></use>
                </g>
                <path d="M170.08,23.12 C176.01,23.12 179.42,26.87 179.42,30.58 C179.42,30.8 179.26,30.99 178.92,30.99 L175.74,31 C175.43,31 175.27,30.87 175.21,30.5 C174.9,28.34 172.93,26.69 170.12,26.69 C168.519558,26.6823716 166.986604,27.3341463 165.881705,28.4920196 C164.776807,29.6498929 164.197484,31.2116688 164.28,32.81 C164.182474,34.4122272 164.756794,35.9826626 165.86496,37.1439599 C166.973126,38.3052572 168.514964,38.9524391 170.12,38.93 C172.96,38.93 174.87,37.52 175.21,35.43 C175.27,35.03 175.43,34.9 175.8,34.9 L178.92,34.9 C179.054326,34.8890014 179.187404,34.9326965 179.289066,35.0211799 C179.390727,35.1096634 179.452363,35.235441 179.46,35.37 C179.46,39.37 175.68,42.49 170.12,42.49 C164.56,42.49 160,38.58 160,32.8 C160,27.02 164.43,23.12 170.08,23.12 Z M223.18,23.48 L231.98,41.62 C232.048585,41.736572 232.09281,41.8658454 232.11001,42 C232.110598,42.0639378 232.083349,42.1249724 232.035348,42.1672133 C232.003347,42.195374 231.964234,42.2133243 231.922946,42.2195779 L228.14,42.22 C227.77,42.22 227.68,42.22 227.49,41.81 L226,38.92 L216.89,38.92 L215.54,41.76 C215.36,42.13 215.26,42.17 214.89,42.17 L211.2,42.17 C211.104368,42.1606727 211.024612,42.09288 211,42 C211.020504,41.8666381 211.06452,41.7379752 211.13,41.62 L219.93,23.48 L223.18,23.48 Z M112.75,23.41 C112.985533,23.4106095 113.205877,23.5263833 113.34,23.72 L120.62,33.9 L120.68,33.9 L127.95,23.72 C128.089529,23.5273714 128.312159,23.4123461 128.55,23.41 L131.28,23.43 C131.483595,23.4444242 131.645576,23.6064054 131.66,23.81 L131.66,41.81 C131.645576,42.0135946 131.483595,42.1755758 131.28,42.19 L127.79,42.19 C127.586405,42.1755758 127.424424,42.0135946 127.41,41.81 L127.41,30.33 L127.32,30.33 C127.009924,31.0382434 126.620787,31.7091689 126.16,32.33 L120.64,40.1 L115.08,32.33 C114.635336,31.7058631 114.259799,31.0352615 113.96,30.33 L113.86,30.33 L113.86,41.79 C113.846233,41.9901245 113.689686,42.1509025 113.49,42.17 L110,42.17 C109.798348,42.1550606 109.639558,41.9919791 109.63,41.79 L109.63,23.79 C109.639558,23.5880209 109.798348,23.4249394 110,23.41 L112.75,23.41 Z M241,23.41 L250.46,33.03 C251.236918,33.8315502 251.968076,34.6762211 252.65,35.56 L252.78,35.56 L252.78,23.81 C252.789558,23.6080209 252.948348,23.4449394 253.15,23.43 L256.65,23.43 C256.849686,23.4490975 257.006233,23.6098755 257.02,23.81 L257.02,41.81 C257.006233,42.0101245 256.849686,42.1709025 256.65,42.19 L253.73,42.17 L244.17,32.42 C243.17,31.42 242.05,30.02 242.05,30.02 L242,30.02 L242,41.79 C241.990442,41.9919791 241.831652,42.1550606 241.63,42.17 L238.13,42.17 C237.930314,42.1509025 237.773767,41.9901245 237.76,41.79 L237.76,23.79 C237.773767,23.5898755 237.930314,23.4290975 238.13,23.41 L241,23.41 Z M189.91,23.41 C190.113595,23.4244242 190.275576,23.5864054 190.29,23.79 L190.29,31.56 L201.06,31.56 L201.06,23.81 C201.073767,23.6098755 201.230314,23.4490975 201.43,23.43 L204.93,23.43 C205.133595,23.4444242 205.295576,23.6064054 205.31,23.81 L205.31,41.79 C205.295576,41.9935946 205.133595,42.1555758 204.93,42.17 L201.43,42.17 C201.230314,42.1509025 201.073767,41.9901245 201.06,41.79 L201.06,35.14 L190.29,35.14 L190.29,41.79 C190.275576,41.9935946 190.113595,42.1555758 189.91,42.17 L186.42,42.17 C186.216405,42.1555758 186.054424,41.9935946 186.04,41.79 L186.04,23.79 C186.054424,23.5864054 186.216405,23.4244242 186.42,23.41 L189.91,23.41 Z M274.8,23.43 L283.6,41.57 C283.66548,41.6879752 283.709496,41.8166381 283.73,41.95 C283.727507,42.0128744 283.699363,42.0719819 283.652125,42.1135512 C283.604887,42.1551204 283.542681,42.175521 283.48,42.17 L279.76,42.17 C279.39,42.17 279.29,42.17 279.11,41.76 L277.7,38.92 L268.58,38.92 L267.24,41.76 C267.05,42.13 266.96,42.17 266.59,42.17 L262.87,42.17 C262.806657,42.178722 262.742653,42.1594543 262.694652,42.1172133 C262.646651,42.0749724 262.619402,42.0139378 262.61999,41.95 C262.63719,41.8158454 262.681415,41.686572 262.75,41.57 L271.55,23.43 L274.8,23.43 Z M293.25,23.41 C293.449686,23.4290975 293.606233,23.5898755 293.62,23.79 L293.62,41.79 C293.606233,41.9901245 293.449686,42.1509025 293.25,42.17 L289.75,42.17 C289.548348,42.1550606 289.389558,41.9919791 289.38,41.79 L289.38,23.79 C289.389558,23.5880209 289.548348,23.4249394 289.75,23.41 L293.25,23.41 Z M310.23,23.43 C314.79,23.43 318.04,25.9 318.04,29.99 C318.068073,32.6027403 316.336892,34.9082476 313.82,35.61 L313.82,35.67 C314.183964,36.0612105 314.518226,36.4790375 314.82,36.92 L318,41.54 C318.103978,41.6538833 318.170324,41.7970501 318.19,41.95 C318.19,42.07 318.13,42.17 317.94,42.17 L313.79,42.17 C313.583115,42.1455545 313.39885,42.0276252 313.29,41.85 L309.48,36.3 L305.48,36.3 L305.48,41.79 C305.470442,41.9919791 305.311652,42.1550606 305.11,42.17 L301.61,42.17 C301.408348,42.1550606 301.249558,41.9919791 301.24,41.79 L301.18,23.81 C301.189558,23.6080209 301.348348,23.4449394 301.55,23.43 L310.23,23.43 Z M154.26,23.41 C154.486391,23.4460728 154.663927,23.6236095 154.7,23.85 L154.7,26.53 C154.663927,26.7563905 154.486391,26.9339272 154.26,26.97 L143.46,26.97 L143.46,30.8 L153.32,30.8 C153.546391,30.8360728 153.723927,31.0136095 153.76,31.24 L153.76,33.92 C153.723927,34.1463905 153.546391,34.3239272 153.32,34.36 L143.46,34.36 L143.46,38.61 L154.46,38.61 C154.683361,38.6448289 154.860046,38.8174981 154.9,39.04 L154.9,41.73 C154.863927,41.9563905 154.686391,42.1339272 154.46,42.17 L139.59,42.17 C139.386405,42.1555758 139.224424,41.9935946 139.21,41.79 L139.21,23.79 C139.224424,23.5864054 139.386405,23.4244242 139.59,23.41 L154.26,23.41 Z M221.57,28.8 L221.38,28.8 C221.008178,29.9376893 220.570779,31.0528897 220.07,32.14 L218.39,35.61 L224.57,35.61 L222.88,32.14 C222.383987,31.0508653 221.946694,29.9359335 221.57,28.8 Z M273.27,28.8 L273.08,28.8 C272.703306,29.9359335 272.266013,31.0508653 271.77,32.14 L270.08,35.61 L276.26,35.61 L274.58,32.14 C274.079221,31.0528897 273.641822,29.9376893 273.27,28.8 Z M310,27 L305.42,27 L305.42,32.93 L310,32.93 C312.34,32.93 313.84,31.84 313.84,30 C313.84,28.16 312.34,27 310,27 Z" id="Combined-Shape" fill-opacity="0.5" fill="#81AACB"></path>
            </g>
        </g>
    </g>
</svg>