<?xml version="1.0" encoding="utf-8"?>
<!-- Generator: Adobe Illustrator 25.4.1, SVG Export Plug-In . SVG Version: 6.00 Build 0)  -->
<svg version="1.1" id="Layer_1" xmlns="http://www.w3.org/2000/svg" xmlns:xlink="http://www.w3.org/1999/xlink" x="0px" y="0px"
	 viewBox="0 0 117.9 88.93" style="enable-background:new 0 0 117.9 88.93;" xml:space="preserve">
<style type="text/css">
	.st0{fill:url(#SVGID_1_);}
</style>
<linearGradient id="SVGID_1_" gradientUnits="userSpaceOnUse" x1="0.0622" y1="44.465" x2="117.8379" y2="44.465">
	<stop  offset="0" style="stop-color:#CC3338"/>
	<stop  offset="0.5" style="stop-color:#FDE018"/>
	<stop  offset="1" style="stop-color:#009FDC"/>
</linearGradient>
<path class="st0" d="M117.7,9.24c-0.03-0.05-0.08-0.07-0.11-0.12c-0.08-0.09-0.15-0.19-0.25-0.26l-14.47-8.67
	c-0.33-0.2-0.74-0.2-1.07,0l-14.4,8.65c-0.02,0.01-0.03,0.03-0.04,0.05c-0.06,0.04-0.12,0.07-0.17,0.13l-28.23,29.6L30.73,9.04
	c-0.05-0.05-0.11-0.09-0.17-0.13c-0.02-0.01-0.03-0.03-0.04-0.04l-14.4-8.65c-0.33-0.2-0.74-0.2-1.07,0L0.57,8.89
	C0.46,8.95,0.39,9.05,0.32,9.14C0.28,9.19,0.23,9.21,0.2,9.26C0.11,9.42,0.06,9.59,0.06,9.78v69.39c0,0.37,0.19,0.7,0.51,0.89
	l14.47,8.68c0,0,0.01,0,0.01,0c0,0,0.01,0.01,0.01,0.01c0.16,0.09,0.34,0.13,0.51,0.13c0.18,0,0.35-0.04,0.51-0.14
	c0,0,0.01-0.01,0.01-0.01c0,0,0.01,0,0.01,0l14.45-8.66c0.31-0.19,0.51-0.53,0.51-0.89V54.08l19.88,21.47
	c0.07,0.07,0.14,0.13,0.23,0.19l7.25,4.35c0.32,0.19,0.72,0.2,1.05,0.01c0.02-0.01,0.03-0.04,0.06-0.06l7.22-4.32
	c0.08-0.05,0.16-0.11,0.23-0.19l19.88-21.47v25.11c0,0.37,0.19,0.7,0.51,0.89l14.45,8.66c0,0,0.01,0,0.01,0c0,0,0.01,0.01,0.01,0.01
	c0.16,0.09,0.34,0.14,0.51,0.14c0.18,0,0.35-0.04,0.51-0.13c0,0,0.01-0.01,0.01-0.01c0,0,0.01,0,0.01,0l14.46-8.68
	c0.31-0.19,0.51-0.53,0.51-0.89V9.76C117.84,9.57,117.79,9.39,117.7,9.24z M28.97,78.6l-12.37,7.41l-0.03-46.01l0-1.55l12.4,13.39
	V78.6z M31.31,32.73L17.25,18.67l-1.68-1.42L7.8,12.58l-4.67-2.8l12.45-7.46l12.39,7.44l1.84,1.32l29.15,30.6l0,18.69L31.31,32.73z
	 M115.76,78.56l-12.38,7.43l0.03-50.22c0-0.16-0.05-0.3-0.11-0.44c-0.02-0.05-0.04-0.1-0.07-0.15c-0.01-0.02-0.03-0.03-0.04-0.04
	c-0.11-0.15-0.26-0.27-0.44-0.34c-0.11-0.04-0.23-0.06-0.35-0.07c-0.01,0-0.02-0.01-0.03-0.01c-0.02,0-0.04,0.01-0.07,0.01
	c-0.1,0.01-0.19,0.03-0.28,0.06c-0.04,0.01-0.07,0.02-0.11,0.04c-0.11,0.05-0.22,0.12-0.31,0.22c0,0,0,0,0,0l-0.28,0.3l-14.2,15.3
	c-0.03,0.04-0.05,0.08-0.08,0.12L65.54,74l-6.59,3.95V63.29l34.16-34.16l9.86-9.86l12.79-7.67V78.56z"/>
</svg>
