<svg id="Layer_1" data-name="Layer 1" xmlns="http://www.w3.org/2000/svg" xmlns:xlink="http://www.w3.org/1999/xlink" viewBox="0 0 117.9 88.93"><defs><style>.cls-1{fill:url(#linear-gradient);}</style><linearGradient id="linear-gradient" y1="44.47" x2="117.9" y2="44.47" gradientUnits="userSpaceOnUse"><stop offset="0" stop-color="#cc3338"/><stop offset="0.5" stop-color="#fee11a"/><stop offset="1" stop-color="#00a0dd"/></linearGradient></defs><path class="cls-1" d="M117.76,9.2a1.31,1.31,0,0,0-.12-.11.78.78,0,0,0-.25-.26L102.91.15a1,1,0,0,0-1.08,0L87.41,8.81l0,0A1.09,1.09,0,0,0,87.2,9L58.94,38.62,30.7,9a1.09,1.09,0,0,0-.17-.13l0,0L16.07.17A1,1,0,0,0,15,.17L.51,8.85a1.07,1.07,0,0,0-.26.26,1.31,1.31,0,0,0-.11.12A1,1,0,0,0,0,9.74V79.2a1,1,0,0,0,.51.9L15,88.79h0a1.09,1.09,0,0,0,1,0h0l14.46-8.67a1.06,1.06,0,0,0,.51-.89V54.09l19.9,21.49a.79.79,0,0,0,.22.19l7.27,4.35a1,1,0,0,0,1,0s0,0,.05,0l7.23-4.33a1,1,0,0,0,.22-.19l19.9-21.49V79.2a1.06,1.06,0,0,0,.51.9l14.46,8.67h0a1.09,1.09,0,0,0,1,0h0l14.48-8.68a1,1,0,0,0,.51-.9V9.72A1.07,1.07,0,0,0,117.76,9.2ZM17.21,18.64l9.51-5.75,3.05-1.84,28.14,29.5V59.34L31.28,32.72ZM60,59.32V40.53L88.13,11l12.56,7.6L86.62,32.7ZM102.37,2.26l12.46,7.46-4,2.42-8.43,5.06L90,9.7Zm-86.84,0,12.4,7.44-12.4,7.5L7.74,12.55,3.07,9.75ZM28.94,78.64,16.56,86.05l0-46.06V38.44l12.41,13.4Zm1.89-27.83a1.25,1.25,0,0,0-.08-.12L16.53,35.37l-.28-.3a1,1,0,0,0-.84-.33,1.09,1.09,0,0,0-.3.07,1,1,0,0,0-.44.34l0,0a1,1,0,0,0-.07.15,1,1,0,0,0-.11.44l0,50.27L2.08,78.61v-67l12.81,7.68,9.87,9.88L57.91,62.29V77.38l-5.56-3.32Zm58.13,1,12.41-13.4V40l0,46.06L89,78.61Zm26.85,26.77L103.42,86l0-50.27a1,1,0,0,0-.11-.44,1,1,0,0,0-.07-.15s0,0,0,0a1,1,0,0,0-.44-.34,1,1,0,0,0-.34-.07h-.11l-.27.06-.11,0a.93.93,0,0,0-.31.22h0l-.28.3L87.15,50.66l-.08.13L65.55,74,60,77.36V62.27L93.14,29.12,103,19.24l12.8-7.68Z"/></svg>